<?xml version="1.0" encoding="iso-8859-1"?>
<!-- Generator: Adobe Illustrator 22.0.1, SVG Export Plug-In . SVG Version: 6.00 Build 0)  -->
<svg xmlns="http://www.w3.org/2000/svg" xmlns:xlink="http://www.w3.org/1999/xlink" version="1.1" id="Layer_1" x="0px" y="0px" viewBox="0 0 64 64" style="enable-background:new 0 0 64 64;" xml:space="preserve" width="100px" height="100px">
<linearGradient id="SVGID_1__69427" gradientUnits="userSpaceOnUse" x1="32" y1="10.95" x2="32" y2="55.05" spreadMethod="reflect">
	<stop offset="0" style="stop-color:#1A6DFF"/>
	<stop offset="1" style="stop-color:#C822FF"/>
</linearGradient>
<path style="fill:url(#SVGID_1__69427);" d="M52,10.95l-8,2.66l-8-2.66l-9,3v10.33l-7,2.33l-8-2.66l-9,3v12.1l8,2.67v10.33l9,3l9-3V41.72  l8-2.67V28.72l7-2.33l8,2.66l9-3v-12.1L52,10.95z M11,39.61l-6-2v-7.22l6,2V39.61z M5.16,28.33L12,26.05l6.84,2.28L12,30.61  L5.16,28.33z M19,30.39v6.89l-6,2v-6.89L19,30.39z M19,52.61l-6-2v-7.22l6,2V52.61z M13.16,41.33L20,39.05l6.84,2.28L20,43.61  L13.16,41.33z M27,50.61l-6,2v-7.22l6-2V50.61z M27,39.28l-6-2v-6.89l6,2V39.28z M28,30.61l-6.84-2.28l6.34-2.11l6.84,2.28L28,30.61  z M35,37.61l-6,2v-7.22l6-2V37.61z M35,26.61l-6-2v-7.22l6,2V26.61z M36,17.61l-6.84-2.28L36,13.05l6.84,2.28L36,17.61z M43,24.61  l-6,2v-7.22l6-2V24.61z M51,26.61l-6-2v-7.22l6,2V26.61z M45.16,15.33L52,13.05l6.84,2.28L52,17.61L45.16,15.33z M59,24.61l-6,2  v-7.22l6-2V24.61z"/>
<linearGradient id="SVGID_2__69427" gradientUnits="userSpaceOnUse" x1="16" y1="43.39" x2="16" y2="52.61" spreadMethod="reflect">
	<stop offset="0" style="stop-color:#6DC7FF"/>
	<stop offset="1" style="stop-color:#E6ABFF"/>
</linearGradient>
<polygon style="fill:url(#SVGID_2__69427);" points="19,45.39 19,52.61 13,50.61 13,43.39 "/>
<linearGradient id="SVGID_3__69427" gradientUnits="userSpaceOnUse" x1="8" y1="30.39" x2="8" y2="39.61" spreadMethod="reflect">
	<stop offset="0" style="stop-color:#6DC7FF"/>
	<stop offset="1" style="stop-color:#E6ABFF"/>
</linearGradient>
<polygon style="fill:url(#SVGID_3__69427);" points="11,32.39 11,39.61 5,37.61 5,30.39 "/>
<linearGradient id="SVGID_4__69427" gradientUnits="userSpaceOnUse" x1="24" y1="30.39" x2="24" y2="39.28" spreadMethod="reflect">
	<stop offset="0" style="stop-color:#6DC7FF"/>
	<stop offset="1" style="stop-color:#E6ABFF"/>
</linearGradient>
<polygon style="fill:url(#SVGID_4__69427);" points="27,32.39 27,39.28 21,37.28 21,30.39 "/>
<linearGradient id="SVGID_5__69427" gradientUnits="userSpaceOnUse" x1="32" y1="17.39" x2="32" y2="26.61" spreadMethod="reflect">
	<stop offset="0" style="stop-color:#6DC7FF"/>
	<stop offset="1" style="stop-color:#E6ABFF"/>
</linearGradient>
<polygon style="fill:url(#SVGID_5__69427);" points="35,19.39 35,26.61 29,24.61 29,17.39 "/>
<linearGradient id="SVGID_6__69427" gradientUnits="userSpaceOnUse" x1="48" y1="17.39" x2="48" y2="26.61" spreadMethod="reflect">
	<stop offset="0" style="stop-color:#6DC7FF"/>
	<stop offset="1" style="stop-color:#E6ABFF"/>
</linearGradient>
<polygon style="fill:url(#SVGID_6__69427);" points="51,19.39 51,26.61 45,24.61 45,17.39 "/>
</svg>
