<?xml version="1.0" encoding="iso-8859-1"?>
<!-- Generator: Adobe Illustrator 22.1.0, SVG Export Plug-In . SVG Version: 6.00 Build 0)  -->
<svg xmlns="http://www.w3.org/2000/svg" xmlns:xlink="http://www.w3.org/1999/xlink" version="1.1" id="Layer_1" x="0px" y="0px" viewBox="0 0 64 64" style="enable-background:new 0 0 64 64;" xml:space="preserve" width="100px" height="100px">
<linearGradient id="SVGID_1__79075" gradientUnits="userSpaceOnUse" x1="35.5002" y1="6.9993" x2="35.5002" y2="57" spreadMethod="reflect">
	<stop offset="0" style="stop-color:#1A6DFF"/>
	<stop offset="1" style="stop-color:#C822FF"/>
</linearGradient>
<path style="fill:url(#SVGID_1__79075);" d="M56.7,30c-0.95-0.5-9.83-5.54-9.92-5.6L16.69,7.42c-0.91-0.51-1.89-0.56-2.62-0.13  C13.39,7.69,13,8.44,13,9.34v45.57c0,0.81,0.35,1.47,0.96,1.83c0.3,0.17,0.63,0.26,0.98,0.26c0.42,0,0.86-0.12,1.29-0.37  l40.43-22.81c1.18-0.67,1.35-1.52,1.34-1.97C57.99,31.11,57.52,30.43,56.7,30z M44.59,25.46l-5.18,5.03L19.82,11.48L44.59,25.46z   M15,54.2V9.6l22.98,22.29L15,54.2z M19.81,52.31l19.6-19.03l5.2,5.04L19.81,52.31z M55.67,32.08l-9.24,5.22l-5.58-5.41l5.56-5.4  c2.04,1.16,8.52,4.84,9.36,5.28c0.08,0.04,0.14,0.08,0.18,0.12C55.89,31.94,55.81,32,55.67,32.08z"/>
<linearGradient id="SVGID_2__79075" gradientUnits="userSpaceOnUse" x1="26.055" y1="14.33" x2="26.055" y2="49.47" spreadMethod="reflect">
	<stop offset="0" style="stop-color:#6DC7FF"/>
	<stop offset="1" style="stop-color:#E6ABFF"/>
</linearGradient>
<polygon style="fill:url(#SVGID_2__79075);" points="35.11,31.89 17,49.47 17,14.33 "/>
</svg>
