<?xml version="1.0" encoding="iso-8859-1"?>
<!-- Generator: Adobe Illustrator 22.1.0, SVG Export Plug-In . SVG Version: 6.00 Build 0)  -->
<svg xmlns="http://www.w3.org/2000/svg" xmlns:xlink="http://www.w3.org/1999/xlink" version="1.1" id="Layer_1" x="0px" y="0px" viewBox="0 0 64 64" style="enable-background:new 0 0 64 64;" xml:space="preserve" width="100px" height="100px">
<linearGradient id="SVGID_1__79087" gradientUnits="userSpaceOnUse" x1="32.0031" y1="8.1669" x2="32.0031" y2="55.7085" spreadMethod="reflect">
	<stop offset="0" style="stop-color:#1A6DFF"/>
	<stop offset="1" style="stop-color:#C822FF"/>
</linearGradient>
<path style="fill:url(#SVGID_1__79087);" d="M54.82,27.52L36.51,8.88c-2.67-2.52-7.02-2.5-9.5,0.02L9.38,26.87  c-1.94,1.93-2.66,3.48-2.28,4.9c0.57,2.16,3.46,2.94,6.52,3.75c1.34,0.36,2.72,0.73,3.75,1.19c-0.36,0.19-0.79,0.39-1.13,0.55  c-1.6,0.76-2.98,1.41-3.18,2.55c-0.05,0.29-0.06,0.86,0.47,1.39c0.95,0.97,3.13,1.73,5.66,2.6c1.84,0.64,4.13,1.44,4.77,2.05  c-0.02,0.2-0.47,0.71-0.71,0.99c-0.71,0.8-2.02,2.29-0.6,3.72c0.8,0.84,1.9,1.04,2.87,1.21c1.53,0.28,2.28,0.48,2.55,1.94  c0.17,0.96,0.8,1.69,1.76,2.04c0.47,0.18,1.02,0.26,1.61,0.26c2.24,0,5.07-1.17,6.83-2.62c0.54-0.46,0.79-0.96,0.74-1.5  c-0.06-0.87-0.82-1.33-1.42-1.69c-0.11-0.07-0.26-0.16-0.38-0.24c1.07-1.02,2.29-1.4,3.37-1.73l0.28-0.09  c0.48-0.16,0.99-0.27,1.49-0.38c1.7-0.37,3.63-0.79,4.51-3.02c0.7-1.74-1.21-2.93-2.59-3.81c-0.3-0.18-0.68-0.42-0.96-0.63  c1.1-0.64,2.81-1.26,4.61-1.91c4.1-1.48,8.34-3.01,9-5.97C57.26,30.86,56.57,29.26,54.82,27.52z M54.97,31.98  c-0.42,1.9-4.47,3.36-7.73,4.53c-2.16,0.78-4.2,1.52-5.48,2.41c-0.67,0.47-0.76,1.04-0.75,1.34c0.03,1.01,1.03,1.64,2.19,2.37  c0.56,0.35,1.71,1.07,1.8,1.37c-0.47,1.18-1.42,1.45-3.08,1.81c-0.54,0.12-1.1,0.24-1.67,0.42l-0.27,0.09  c-1.21,0.37-2.86,0.89-4.32,2.36c-0.58,0.59-0.65,1.15-0.6,1.52c0.11,0.88,0.88,1.34,1.49,1.71c0.07,0.04,0.14,0.08,0.21,0.13  c-1.89,1.43-4.9,2.33-6.24,1.84c-0.35-0.13-0.44-0.3-0.48-0.52c-0.53-2.9-2.72-3.3-4.17-3.56c-0.76-0.13-1.43-0.25-1.83-0.66  c0.01-0.19,0.47-0.71,0.71-0.98c0.7-0.8,2.01-2.29,0.58-3.74c-0.92-0.92-3.04-1.66-5.49-2.51c-1.66-0.57-3.68-1.28-4.58-1.88  c0.46-0.31,1.32-0.71,1.84-0.96c1.58-0.74,2.73-1.28,2.8-2.34c0.02-0.3-0.04-0.87-0.74-1.33c-1.3-0.82-3.19-1.32-5.03-1.81  c-2.15-0.58-4.82-1.29-5.1-2.34c-0.1-0.36,0-1.22,1.76-2.97l17.65-17.97c1.71-1.75,4.84-1.73,6.67,0l18.28,18.62l0.01,0.01  C54.62,30.14,55.15,31.17,54.97,31.98z"/>
<linearGradient id="SVGID_2__79087" gradientUnits="userSpaceOnUse" x1="53.5011" y1="8.1667" x2="53.5011" y2="55.7088" spreadMethod="reflect">
	<stop offset="0" style="stop-color:#1A6DFF"/>
	<stop offset="1" style="stop-color:#C822FF"/>
</linearGradient>
<path style="fill:url(#SVGID_2__79087);" d="M53.983,47.003c-1.552,0-3.147-0.318-3.933-0.709C49.183,45.862,49,45.286,49,44.878  l0.024-0.219c0.583-2.598,2.955-3.724,4.888-3.657c2.139,0.064,3.731,1.412,4.059,3.432c0.128,0.679-0.138,1.342-0.734,1.793  C56.495,46.79,55.254,47.003,53.983,47.003z M51.138,44.602c1.106,0.428,4.146,0.583,4.844,0.073  c-0.304-1.502-1.701-1.661-2.13-1.674C52.836,42.962,51.637,43.466,51.138,44.602z M56,44.778c0.001,0,0.001,0.001,0.001,0.002  C56.001,44.779,56.001,44.778,56,44.778z"/>
<linearGradient id="SVGID_3__79087" gradientUnits="userSpaceOnUse" x1="49.0003" y1="8.1667" x2="49.0003" y2="55.7088" spreadMethod="reflect">
	<stop offset="0" style="stop-color:#1A6DFF"/>
	<stop offset="1" style="stop-color:#C822FF"/>
</linearGradient>
<path style="fill:url(#SVGID_3__79087);" d="M49.149,53.006c-0.984,0-1.864-0.436-2.431-1.09c-0.934-1.079-1.141-2.924,0.504-4.613  l0.387-0.397l0.541,0.117c2.378,0.514,3.526,2.093,3.788,3.288c0.177,0.811-0.033,1.53-0.562,1.926  C50.633,52.777,49.863,53.006,49.149,53.006z M48.294,49.14c-0.367,0.554-0.397,1.081-0.063,1.467  c0.349,0.402,1.043,0.562,1.761,0.149C49.922,50.391,49.48,49.574,48.294,49.14z"/>
<linearGradient id="SVGID_4__79087" gradientUnits="userSpaceOnUse" x1="17.0439" y1="8.1667" x2="17.0439" y2="55.7088" spreadMethod="reflect">
	<stop offset="0" style="stop-color:#1A6DFF"/>
	<stop offset="1" style="stop-color:#C822FF"/>
</linearGradient>
<path style="fill:url(#SVGID_4__79087);" d="M16.178,53c-0.83,0-1.601-0.354-2.221-1.031c-0.914-0.98-1.187-2.125-0.767-3.226  c0.54-1.413,2.268-2.559,4.107-2.724c1.566-0.14,2.857,0.444,3.558,1.603l0.234,0.387l-0.137,0.432  c-0.715,2.265-2.406,4.109-4.111,4.485C16.618,52.976,16.396,53,16.178,53z M17.738,48c-0.096,0-0.184,0.005-0.262,0.012  c-1.065,0.095-2.149,0.744-2.417,1.445c-0.089,0.232-0.148,0.604,0.362,1.15l0.008,0.008c0.302,0.331,0.605,0.441,0.981,0.357  c0.884-0.195,1.898-1.308,2.453-2.637C18.528,48.066,18.088,48,17.738,48z"/>
<linearGradient id="SVGID_5__79087" gradientUnits="userSpaceOnUse" x1="32.0038" y1="16" x2="32.0038" y2="54.0147" spreadMethod="reflect">
	<stop offset="0" style="stop-color:#6DC7FF"/>
	<stop offset="1" style="stop-color:#E6ABFF"/>
</linearGradient>
<path style="fill:url(#SVGID_5__79087);" d="M53.4,28.94l-0.01-0.01l-9.53-9.71L41,18l-1,4l-4-2l-6,3l-2-7l-3,6h-8.04l-6.17,6.28  c-1.76,1.75-1.86,2.61-1.76,2.97c0.28,1.05,2.95,1.76,5.1,2.34c1.84,0.49,3.73,0.99,5.03,1.81c0.7,0.46,0.76,1.03,0.74,1.33  c-0.07,1.06-1.22,1.6-2.8,2.34c-0.52,0.25-1.38,0.65-1.84,0.96c0.9,0.6,2.92,1.31,4.58,1.88c2.45,0.85,4.57,1.59,5.49,2.51  c1.43,1.45,0.12,2.94-0.58,3.74c-0.24,0.27-0.7,0.79-0.71,0.98c0.4,0.41,1.07,0.53,1.83,0.66c1.45,0.26,3.64,0.66,4.17,3.56  c0.04,0.22,0.13,0.39,0.48,0.52c1.34,0.49,4.35-0.41,6.24-1.84c-0.07-0.05-0.14-0.09-0.21-0.13c-0.61-0.37-1.38-0.83-1.49-1.71  c-0.05-0.37,0.02-0.93,0.6-1.52c1.46-1.47,3.11-1.99,4.32-2.36l0.27-0.09c0.57-0.18,1.13-0.3,1.67-0.42  c1.66-0.36,2.61-0.63,3.08-1.81c-0.09-0.3-1.24-1.02-1.8-1.37c-1.16-0.73-2.16-1.36-2.19-2.37c-0.01-0.3,0.08-0.87,0.75-1.34  c1.28-0.89,3.32-1.63,5.48-2.41c3.26-1.17,7.31-2.63,7.73-4.53C55.15,31.17,54.62,30.14,53.4,28.94z M33.98,42.84  c-0.26,0.1-0.58,0.14-0.94,0.14c-3.09,0-9.3-3.42-10.5-4.65c-0.64-0.66-0.6-1.22-0.45-1.57c0.12-0.28,0.46-0.76,1.37-0.76  c0.12,0,11.96,1.49,12.51,4.49C36.15,41.46,35.48,42.25,33.98,42.84z"/>
<linearGradient id="SVGID_6__79087" gradientUnits="userSpaceOnUse" x1="29.0011" y1="7.4167" x2="29.0011" y2="55.6788" spreadMethod="reflect">
	<stop offset="0" style="stop-color:#1A6DFF"/>
	<stop offset="1" style="stop-color:#C822FF"/>
</linearGradient>
<path style="fill:url(#SVGID_6__79087);" d="M23.463,37c0.48,0.001,16.202,2.565,10.155,4.903C33.449,41.969,33.237,42,32.99,42  C29.828,42,20.876,37,23.463,37 M23.466,35h-0.003C21.846,35,21,36.112,21,37.21c0,0.797,0,2.001,5.059,4.539  C27.409,42.426,30.786,44,32.99,44c0.511,0,0.955-0.077,1.357-0.235c2.638-1.02,2.768-2.605,2.61-3.458  c-0.336-1.814-2.299-2.935-7.244-4.136c-2.559-0.622-5.703-1.169-6.246-1.171H23.466L23.466,35z"/>
</svg>
