<?xml version="1.0" encoding="UTF-8" standalone="no"?>
<svg
   xmlns:dc="http://purl.org/dc/elements/1.1/"
   xmlns:cc="http://creativecommons.org/ns#"
   xmlns:rdf="http://www.w3.org/1999/02/22-rdf-syntax-ns#"
   xmlns:svg="http://www.w3.org/2000/svg"
   xmlns="http://www.w3.org/2000/svg"
   xmlns:sodipodi="http://sodipodi.sourceforge.net/DTD/sodipodi-0.dtd"
   xmlns:inkscape="http://www.inkscape.org/namespaces/inkscape"
   viewBox="0 0 6666.6665 6666.6665"
   height="6666.6665"
   width="6666.6665"
   xml:space="preserve"
   id="svg2"
   version="1.1"
   sodipodi:docname="moon_zoom.svg"
   inkscape:version="0.92.2 5c3e80d, 2017-08-06"><sodipodi:namedview
     pagecolor="#ffffff"
     bordercolor="#666666"
     borderopacity="1"
     objecttolerance="10"
     gridtolerance="10"
     guidetolerance="10"
     inkscape:pageopacity="0"
     inkscape:pageshadow="2"
     inkscape:window-width="1280"
     inkscape:window-height="755"
     id="namedview1189"
     showgrid="false"
     inkscape:zoom="0.070710678"
     inkscape:cx="3899.5122"
     inkscape:cy="3347.385"
     inkscape:window-x="0"
     inkscape:window-y="1"
     inkscape:window-maximized="1"
     inkscape:current-layer="g12" /><metadata
     id="metadata8"><rdf:RDF><cc:Work
         rdf:about=""><dc:format>image/svg+xml</dc:format><dc:type
           rdf:resource="http://purl.org/dc/dcmitype/StillImage" /><dc:title></dc:title></cc:Work></rdf:RDF></metadata><defs
     id="defs6"><clipPath
       id="clipPath20"
       clipPathUnits="userSpaceOnUse"><path
         id="path18"
         d="M 50000,0 H 0 V 50000 H 50000 V 0 M 6694.62,19605.5 c -65.9,0 -119.34,-53.4 -119.34,-119.3 0,-65.9 53.44,-119.4 119.34,-119.4 65.91,0 119.35,53.5 119.35,119.4 0,65.9 -53.44,119.3 -119.35,119.3 m 28726.48,2285.7 c -54.6,0 -98.8,-44.2 -98.8,-98.8 0,-54.5 44.2,-98.7 98.8,-98.7 54.5,0 98.7,44.2 98.7,98.7 0,54.6 -44.2,98.8 -98.7,98.8 m -22142.6,150.2 c -51.1,0 -92.6,-41.4 -92.6,-92.6 0,-51.1 41.5,-92.5 92.6,-92.5 51.1,0 92.6,41.4 92.6,92.5 0,51.2 -41.5,92.6 -92.6,92.6 m -8831.66,1591.2 c -73.3,0 -132.71,-59.4 -132.71,-132.7 0,-73.3 59.41,-132.7 132.71,-132.7 73.3,0 132.72,59.4 132.72,132.7 0,73.3 -59.42,132.7 -132.72,132.7 m 4898.9,500.1 c -61.36,0 -111.11,-49.7 -111.11,-111.1 0,-61.4 49.75,-111.1 111.11,-111.1 61.37,0 111.11,49.7 111.11,111.1 0,61.4 -49.74,111.1 -111.11,111.1 m -5167.42,790 c -61.36,0 -111.1,-49.7 -111.1,-111.1 0,-61.4 49.74,-111.1 111.1,-111.1 61.37,0 111.11,49.7 111.11,111.1 0,61.4 -49.74,111.1 -111.11,111.1 m 36378.58,136.7 c -63.7,0 -115.2,-51.5 -115.2,-115.2 0,-63.6 51.5,-115.2 115.2,-115.2 63.6,0 115.2,51.6 115.2,115.2 0,63.7 -51.6,115.2 -115.2,115.2 m -7657.7,665.7 c -66.5,0 -120.4,-53.9 -120.4,-120.4 0,-66.5 53.9,-120.4 120.4,-120.4 66.5,0 120.4,53.9 120.4,120.4 0,66.5 -53.9,120.4 -120.4,120.4 m -25253.45,412.1 c -73.3,0 -132.72,-59.4 -132.72,-132.7 0,-73.3 59.42,-132.7 132.72,-132.7 73.29,0 132.71,59.4 132.71,132.7 0,73.3 -59.42,132.7 -132.71,132.7 m 8972.75,3126 c -64.7,0 -117.3,-52.5 -117.3,-117.3 0,-64.8 52.6,-117.3 117.3,-117.3 64.8,0 117.3,52.5 117.3,117.3 0,64.8 -52.5,117.3 -117.3,117.3 M 30418,30783.5 c -66,0 -119.4,-53.4 -119.4,-119.4 0,-65.9 53.4,-119.3 119.4,-119.3 65.9,0 119.3,53.4 119.3,119.3 0,66 -53.4,119.4 -119.3,119.4 m -5116.3,520.8 c -50,0 -90.6,-40.5 -90.6,-90.5 0,-50 40.6,-90.5 90.6,-90.5 50,0 90.5,40.5 90.5,90.5 0,50 -40.5,90.5 -90.5,90.5 m -24155.97,190.5 c -52.27,0 -94.64,-42.4 -94.64,-94.7 0,-52.3 42.37,-94.6 94.64,-94.6 52.28,0 94.65,42.3 94.65,94.6 0,52.3 -42.37,94.7 -94.65,94.7 m 42299.57,113 c -52,0 -94.2,-42.1 -94.2,-94.1 0,-52 42.2,-94.2 94.2,-94.2 51.9,0 94.1,42.2 94.1,94.2 0,52 -42.2,94.1 -94.1,94.1 m 1200.6,273.2 c -57.1,0 -103.4,-46.3 -103.4,-103.4 0,-57.1 46.3,-103.4 103.4,-103.4 57.1,0 103.4,46.3 103.4,103.4 0,57.1 -46.3,103.4 -103.4,103.4 m -24809.3,44.7 c -55.6,0 -100.8,-45.1 -100.8,-100.8 0,-55.7 45.2,-100.8 100.8,-100.8 55.7,0 100.9,45.1 100.9,100.8 0,55.7 -45.2,100.8 -100.9,100.8 m 1489.8,983.6 c -46.6,0 -84.4,-37.8 -84.4,-84.4 0,-46.6 37.8,-84.3 84.4,-84.3 46.6,0 84.3,37.7 84.3,84.3 0,46.6 -37.7,84.4 -84.3,84.4 m 20117.3,255.1 c -50,0 -90.5,-40.5 -90.5,-90.5 0,-50 40.5,-90.6 90.5,-90.6 50,0 90.5,40.6 90.5,90.6 0,50 -40.5,90.5 -90.5,90.5 m -40413.89,874 c -63.638,0 -115.232,-51.6 -115.232,-115.2 0,-63.7 51.594,-115.3 115.232,-115.3 63.64,0 115.23,51.6 115.23,115.3 0,63.6 -51.59,115.2 -115.23,115.2 m 32362.39,484 c -65.9,0 -119.3,-53.4 -119.3,-119.3 0,-65.9 53.4,-119.3 119.3,-119.3 66,0 119.4,53.4 119.4,119.3 0,65.9 -53.4,119.3 -119.4,119.3 m -28728.27,231.5 c -46.6,0 -84.37,-37.7 -84.37,-84.3 0,-46.6 37.77,-84.4 84.37,-84.4 46.58,0 84.35,37.8 84.35,84.4 0,46.6 -37.77,84.3 -84.35,84.3 m 10999.87,235.6 c -46.6,0 -84.4,-37.7 -84.4,-84.3 0,-46.6 37.8,-84.4 84.4,-84.4 46.6,0 84.3,37.8 84.3,84.4 0,46.6 -37.7,84.3 -84.3,84.3 m 20736.7,751.1 c -75,0 -135.8,-60.8 -135.8,-135.8 0,-75.1 60.8,-135.8 135.8,-135.8 75,0 135.8,60.7 135.8,135.8 0,75 -60.8,135.8 -135.8,135.8 m 12718.1,1026.7 c -63.6,0 -115.2,-51.6 -115.2,-115.2 0,-63.7 51.6,-115.2 115.2,-115.2 63.7,0 115.3,51.5 115.3,115.2 0,63.6 -51.6,115.2 -115.3,115.2 m -42831.49,24.2 c -68.18,0 -123.45,-55.3 -123.45,-123.5 0,-68.2 55.27,-123.4 123.45,-123.4 68.18,0 123.46,55.2 123.46,123.4 0,68.2 -55.28,123.5 -123.46,123.5 m 40864.39,233 c -65.9,0 -119.3,-53.4 -119.3,-119.3 0,-65.9 53.4,-119.4 119.3,-119.4 66,0 119.4,53.5 119.4,119.4 0,65.9 -53.4,119.3 -119.4,119.3 m -23288.1,450.6 c -64.8,0 -117.3,-52.5 -117.3,-117.3 0,-64.7 52.5,-117.2 117.3,-117.2 64.8,0 117.3,52.5 117.3,117.2 0,64.8 -52.5,117.3 -117.3,117.3 m 9755.2,117.3 c -50,0 -90.6,-40.5 -90.6,-90.5 0,-50 40.6,-90.5 90.6,-90.5 50,0 90.5,40.5 90.5,90.5 0,50 -40.5,90.5 -90.5,90.5 m -14514.5,169.8 c -66.5,0 -120.3,-53.9 -120.3,-120.4 0,-66.5 53.8,-120.4 120.3,-120.4 66.5,0 120.4,53.9 120.4,120.4 0,66.5 -53.9,120.4 -120.4,120.4 m -17372.64,897.6 c -68.19,0 -123.45,-55.3 -123.45,-123.4 0,-68.2 55.26,-123.5 123.45,-123.5 68.18,0 123.46,55.3 123.46,123.5 0,68.1 -55.28,123.4 -123.46,123.4 m 38467.34,171.3 c -68.1,0 -123.4,-55.3 -123.4,-123.5 0,-68.1 55.3,-123.4 123.4,-123.4 68.2,0 123.5,55.3 123.5,123.4 0,68.2 -55.3,123.5 -123.5,123.5 m -11251,156.4 c -54.6,0 -98.8,-44.2 -98.8,-98.8 0,-54.5 44.2,-98.8 98.8,-98.8 54.5,0 98.7,44.3 98.7,98.8 0,54.6 -44.2,98.8 -98.7,98.8 m 17214,594.6 c -51.1,0 -92.6,-41.4 -92.6,-92.6 0,-51.1 41.5,-92.6 92.6,-92.6 51.2,0 92.6,41.5 92.6,92.6 0,51.2 -41.4,92.6 -92.6,92.6 m -34458.9,982.5 c -52.9,0 -95.7,-42.8 -95.7,-95.6 0,-52.9 42.8,-95.7 95.7,-95.7 52.8,0 95.7,42.8 95.7,95.7 0,52.8 -42.9,95.6 -95.7,95.6 m 25866.3,727.4 c -59.1,0 -107,-47.9 -107,-107 0,-59.1 47.9,-107 107,-107 59.1,0 107,47.9 107,107 0,59.1 -47.9,107 -107,107 m 10476.4,220.2 c -68.2,0 -123.5,-55.3 -123.5,-123.5 0,-68.2 55.3,-123.4 123.5,-123.4 68.2,0 123.4,55.2 123.4,123.4 0,68.2 -55.2,123.5 -123.4,123.5 m -23527.9,214.5 c -57.9,0 -104.9,-47 -104.9,-104.9 0,-58 47,-105 104.9,-105 58,0 105,47 105,105 0,57.9 -47,104.9 -105,104.9 m -1351.8,296.3 c -54.6,0 -98.8,-44.2 -98.8,-98.8 0,-54.5 44.2,-98.8 98.8,-98.8 54.5,0 98.7,44.3 98.7,98.8 0,54.6 -44.2,98.8 -98.7,98.8 m -10913.6,4.6 c -54.6,0 -98.8,-44.2 -98.8,-98.7 0,-54.6 44.2,-98.8 98.8,-98.8 54.5,0 98.7,44.2 98.7,98.8 0,54.5 -44.2,98.7 -98.7,98.7 m 23382.7,95.7 c -63.6,0 -115.2,-51.6 -115.2,-115.2 0,-63.7 51.6,-115.3 115.2,-115.3 63.7,0 115.3,51.6 115.3,115.3 0,63.6 -51.6,115.2 -115.3,115.2 m -5435.2,407.4 c -54.5,0 -98.7,-44.2 -98.7,-98.8 0,-54.5 44.2,-98.7 98.7,-98.7 54.6,0 98.8,44.2 98.8,98.7 0,54.6 -44.2,98.8 -98.8,98.8 m -13750,43.2 c -61.4,0 -111.1,-49.7 -111.1,-111.1 0,-61.4 49.7,-111.1 111.1,-111.1 61.4,0 111.1,49.7 111.1,111.1 0,61.4 -49.7,111.1 -111.1,111.1 M 1731.46,42737 c -73.3,0 -132.72,-59.4 -132.72,-132.7 0,-73.3 59.42,-132.7 132.72,-132.7 73.3,0 132.72,59.4 132.72,132.7 0,73.3 -59.42,132.7 -132.72,132.7 m 4898.9,500.1 c -61.36,0 -111.12,-49.7 -111.12,-111.1 0,-61.4 49.76,-111.1 111.12,-111.1 61.37,0 111.11,49.7 111.11,111.1 0,61.4 -49.74,111.1 -111.11,111.1 m 3989.14,68.3 c -63,0 -114.2,-51.1 -114.2,-114.2 0,-63.1 51.2,-114.2 114.2,-114.2 63.1,0 114.2,51.1 114.2,114.2 0,63.1 -51.1,114.2 -114.2,114.2 m 11293.3,493.8 c -58,0 -105,-47 -105,-104.9 0,-58 47,-104.9 105,-104.9 57.9,0 104.9,46.9 104.9,104.9 0,57.9 -47,104.9 -104.9,104.9 m -20449.87,227.9 c -61.35,0 -111.11,-49.7 -111.11,-111.1 0,-61.4 49.76,-111.1 111.11,-111.1 61.37,0 111.12,49.7 111.12,111.1 0,61.4 -49.75,111.1 -111.12,111.1 m 24647.37,945 c -63,0 -114.2,-51.2 -114.2,-114.2 0,-63.1 51.2,-114.2 114.2,-114.2 63.1,0 114.2,51.1 114.2,114.2 0,63 -51.1,114.2 -114.2,114.2 m 17984.6,146.6 c -46.8,0 -84.8,-38 -84.8,-84.9 0,-46.9 38,-84.9 84.8,-84.9 46.9,0 84.9,38 84.9,84.9 0,46.9 -38,84.9 -84.9,84.9 m -39164.54,122.9 c -73.3,0 -132.72,-59.4 -132.72,-132.7 0,-73.3 59.42,-132.7 132.72,-132.7 73.29,0 132.72,59.4 132.72,132.7 0,73.3 -59.43,132.7 -132.72,132.7 m 44889.94,224.3 c -73.3,0 -132.7,-59.4 -132.7,-132.7 0,-73.3 59.4,-132.7 132.7,-132.7 73.3,0 132.7,59.4 132.7,132.7 0,73.3 -59.4,132.7 -132.7,132.7 m -42028.97,459.9 c -72.72,0 -131.69,-59 -131.69,-131.7 0,-72.7 58.97,-131.7 131.69,-131.7 72.74,0 131.69,59 131.69,131.7 0,72.7 -58.95,131.7 -131.69,131.7 m 20395.17,467.1 c -52.3,0 -94.7,-42.4 -94.7,-94.7 0,-52.3 42.4,-94.6 94.7,-94.6 52.2,0 94.6,42.3 94.6,94.6 0,52.3 -42.4,94.7 -94.6,94.7 m 12700.1,93.1 c -55.4,0 -100.3,-44.9 -100.3,-100.3 0,-55.4 44.9,-100.3 100.3,-100.3 55.4,0 100.3,44.9 100.3,100.3 0,55.4 -44.9,100.3 -100.3,100.3 m 8665.2,270 c -61.4,0 -111.2,-49.7 -111.2,-111.1 0,-61.3 49.8,-111.1 111.2,-111.1 61.3,0 111.1,49.8 111.1,111.1 0,61.4 -49.8,111.1 -111.1,111.1 m -4172.9,62.8 c -46.6,0 -84.4,-37.8 -84.4,-84.4 0,-46.6 37.8,-84.3 84.4,-84.3 46.6,0 84.4,37.7 84.4,84.3 0,46.6 -37.8,84.4 -84.4,84.4 m -586.4,536 c -66.5,0 -120.4,-53.9 -120.4,-120.4 0,-66.5 53.9,-120.3 120.4,-120.3 66.5,0 120.4,53.8 120.4,120.3 0,66.5 -53.9,120.4 -120.4,120.4 M 26836.7,47471 c -55.7,0 -100.9,-45.1 -100.9,-100.8 0,-55.6 45.2,-100.8 100.9,-100.8 55.6,0 100.8,45.2 100.8,100.8 0,55.7 -45.2,100.8 -100.8,100.8 m 11250.5,163.1 c -41.7,0 -75.6,-33.8 -75.6,-75.6 0,-41.8 33.9,-75.6 75.6,-75.6 41.8,0 75.6,33.8 75.6,75.6 0,41.8 -33.8,75.6 -75.6,75.6 m -18862.7,384.3 c -55.7,0 -100.8,-45.2 -100.8,-100.8 0,-55.7 45.1,-100.9 100.8,-100.9 55.7,0 100.8,45.2 100.8,100.9 0,55.6 -45.1,100.8 -100.8,100.8 m -6301.5,96.7 c -54.5,0 -98.7,-44.2 -98.7,-98.8 0,-54.5 44.2,-98.7 98.7,-98.7 54.6,0 98.8,44.2 98.8,98.7 0,54.6 -44.2,98.8 -98.8,98.8 m -9485.59,518.5 c -54.55,0 -98.77,-44.2 -98.77,-98.8 0,-54.5 44.22,-98.7 98.77,-98.7 54.55,0 98.76,44.2 98.76,98.7 0,54.6 -44.21,98.8 -98.76,98.8" /></clipPath><radialGradient
       id="radialGradient30"
       spreadMethod="pad"
       gradientTransform="matrix(25000,0,0,-25000,25000,25000)"
       gradientUnits="userSpaceOnUse"
       r="1"
       cy="0"
       cx="0"
       fy="0"
       fx="0"><stop
         id="stop24"
         offset="0"
         style="stop-opacity:1;stop-color:#ffffff" /><stop
         id="stop26"
         offset="0.45699"
         style="stop-opacity:1;stop-color:#5b7c6a" /><stop
         id="stop28"
         offset="1"
         style="stop-opacity:1;stop-color:#161a13" /></radialGradient><clipPath
       id="clipPath40"
       clipPathUnits="userSpaceOnUse"><path
         id="path38"
         d="m 7791.33,45662.4 c -72.72,0 -131.69,59 -131.69,131.7 0,72.7 58.97,131.7 131.69,131.7 72.74,0 131.69,-59 131.69,-131.7 0,-72.7 -58.95,-131.7 -131.69,-131.7" /></clipPath><radialGradient
       id="radialGradient50"
       spreadMethod="pad"
       gradientTransform="matrix(25000,0,0,-25000,25000,25000)"
       gradientUnits="userSpaceOnUse"
       r="1"
       cy="0"
       cx="0"
       fy="0"
       fx="0"><stop
         id="stop44"
         offset="0"
         style="stop-opacity:1;stop-color:#d5d2af" /><stop
         id="stop46"
         offset="0.45699"
         style="stop-opacity:1;stop-color:#939f74" /><stop
         id="stop48"
         offset="1"
         style="stop-opacity:1;stop-color:#6a714b" /></radialGradient><clipPath
       id="clipPath68"
       clipPathUnits="userSpaceOnUse"><path
         id="path66"
         d="m 3437.41,48436.1 c -54.55,0 -98.77,44.2 -98.77,98.7 0,54.6 44.22,98.8 98.77,98.8 54.55,0 98.76,-44.2 98.76,-98.8 0,-54.5 -44.21,-98.7 -98.76,-98.7" /></clipPath><radialGradient
       id="radialGradient78"
       spreadMethod="pad"
       gradientTransform="matrix(25000,0,0,-25000,25000,25000)"
       gradientUnits="userSpaceOnUse"
       r="1"
       cy="0"
       cx="0"
       fy="0"
       fx="0"><stop
         id="stop72"
         offset="0"
         style="stop-opacity:1;stop-color:#edebda" /><stop
         id="stop74"
         offset="0.45699"
         style="stop-opacity:1;stop-color:#758d6f" /><stop
         id="stop76"
         offset="1"
         style="stop-opacity:1;stop-color:#323c25" /></radialGradient><clipPath
       id="clipPath100"
       clipPathUnits="userSpaceOnUse"><path
         id="path98"
         d="m 12923,47917.6 c -54.5,0 -98.7,44.2 -98.7,98.7 0,54.6 44.2,98.8 98.7,98.8 54.6,0 98.8,-44.2 98.8,-98.8 0,-54.5 -44.2,-98.7 -98.8,-98.7" /></clipPath><radialGradient
       id="radialGradient110"
       spreadMethod="pad"
       gradientTransform="matrix(25000,0,0,-25000,25000,25000)"
       gradientUnits="userSpaceOnUse"
       r="1"
       cy="0"
       cx="0"
       fy="0"
       fx="0"><stop
         id="stop104"
         offset="0"
         style="stop-opacity:1;stop-color:#d5d2af" /><stop
         id="stop106"
         offset="0.45699"
         style="stop-opacity:1;stop-color:#939f74" /><stop
         id="stop108"
         offset="1"
         style="stop-opacity:1;stop-color:#6a714b" /></radialGradient><clipPath
       id="clipPath128"
       clipPathUnits="userSpaceOnUse"><path
         id="path126"
         d="m 10619.5,43077 c -63,0 -114.2,51.1 -114.2,114.2 0,63.1 51.2,114.2 114.2,114.2 63.1,0 114.2,-51.1 114.2,-114.2 0,-63.1 -51.1,-114.2 -114.2,-114.2" /></clipPath><radialGradient
       id="radialGradient138"
       spreadMethod="pad"
       gradientTransform="matrix(25000,0,0,-25000,25000,25000)"
       gradientUnits="userSpaceOnUse"
       r="1"
       cy="0"
       cx="0"
       fy="0"
       fx="0"><stop
         id="stop132"
         offset="0"
         style="stop-opacity:1;stop-color:#e7e6d0" /><stop
         id="stop134"
         offset="0.45699"
         style="stop-opacity:1;stop-color:#7b9171" /><stop
         id="stop136"
         offset="1"
         style="stop-opacity:1;stop-color:#3e472c" /></radialGradient><clipPath
       id="clipPath148"
       clipPathUnits="userSpaceOnUse"><path
         id="path146"
         d="m 12252.3,41830.1 c -54.6,0 -98.8,44.2 -98.8,98.8 0,54.5 44.2,98.7 98.8,98.7 54.5,0 98.7,-44.2 98.7,-98.7 0,-54.6 -44.2,-98.8 -98.7,-98.8" /></clipPath><radialGradient
       id="radialGradient158"
       spreadMethod="pad"
       gradientTransform="matrix(25000,0,0,-25000,25000,25000)"
       gradientUnits="userSpaceOnUse"
       r="1"
       cy="0"
       cx="0"
       fy="0"
       fx="0"><stop
         id="stop152"
         offset="0"
         style="stop-opacity:1;stop-color:#d5d2af" /><stop
         id="stop154"
         offset="0.45699"
         style="stop-opacity:1;stop-color:#939f74" /><stop
         id="stop156"
         offset="1"
         style="stop-opacity:1;stop-color:#6a714b" /></radialGradient><clipPath
       id="clipPath172"
       clipPathUnits="userSpaceOnUse"><path
         id="path170"
         d="m 11702.9,40373.3 c -52.9,0 -95.7,42.8 -95.7,95.7 0,52.8 42.8,95.6 95.7,95.6 52.8,0 95.7,-42.8 95.7,-95.6 0,-52.9 -42.9,-95.7 -95.7,-95.7" /></clipPath><radialGradient
       id="radialGradient182"
       spreadMethod="pad"
       gradientTransform="matrix(25000,0,0,-25000,25000,25000)"
       gradientUnits="userSpaceOnUse"
       r="1"
       cy="0"
       cx="0"
       fy="0"
       fx="0"><stop
         id="stop176"
         offset="0"
         style="stop-opacity:1;stop-color:#e7e6d0" /><stop
         id="stop178"
         offset="0.45699"
         style="stop-opacity:1;stop-color:#7b9171" /><stop
         id="stop180"
         offset="1"
         style="stop-opacity:1;stop-color:#3e472c" /></radialGradient><clipPath
       id="clipPath216"
       clipPathUnits="userSpaceOnUse"><path
         id="path214"
         d="m 16449.8,42351.7 c -61.4,0 -111.1,49.7 -111.1,111.1 0,61.4 49.7,111.1 111.1,111.1 61.4,0 111.1,-49.7 111.1,-111.1 0,-61.4 -49.7,-111.1 -111.1,-111.1" /></clipPath><radialGradient
       id="radialGradient226"
       spreadMethod="pad"
       gradientTransform="matrix(25000,0,0,-25000,25000,25000)"
       gradientUnits="userSpaceOnUse"
       r="1"
       cy="0"
       cx="0"
       fy="0"
       fx="0"><stop
         id="stop220"
         offset="0"
         style="stop-opacity:1;stop-color:#e7e5d0" /><stop
         id="stop222"
         offset="0.45699"
         style="stop-opacity:1;stop-color:#7c9270" /><stop
         id="stop224"
         offset="1"
         style="stop-opacity:1;stop-color:#3e492e" /></radialGradient><clipPath
       id="clipPath240"
       clipPathUnits="userSpaceOnUse"><path
         id="path238"
         d="m 21912.8,43589.4 c -58,0 -105,46.9 -105,104.9 0,57.9 47,104.9 105,104.9 57.9,0 104.9,-47 104.9,-104.9 0,-58 -47,-104.9 -104.9,-104.9" /></clipPath><radialGradient
       id="radialGradient250"
       spreadMethod="pad"
       gradientTransform="matrix(25000,0,0,-25000,25000,25000)"
       gradientUnits="userSpaceOnUse"
       r="1"
       cy="0"
       cx="0"
       fy="0"
       fx="0"><stop
         id="stop244"
         offset="0"
         style="stop-opacity:1;stop-color:#d5d2af" /><stop
         id="stop246"
         offset="0.45699"
         style="stop-opacity:1;stop-color:#939f74" /><stop
         id="stop248"
         offset="1"
         style="stop-opacity:1;stop-color:#6a714b" /></radialGradient><clipPath
       id="clipPath268"
       clipPathUnits="userSpaceOnUse"><path
         id="path266"
         d="m 26836.7,47269.4 c -55.7,0 -100.9,45.2 -100.9,100.8 0,55.7 45.2,100.8 100.9,100.8 55.6,0 100.8,-45.1 100.8,-100.8 0,-55.6 -45.2,-100.8 -100.8,-100.8" /></clipPath><radialGradient
       id="radialGradient278"
       spreadMethod="pad"
       gradientTransform="matrix(25000,0,0,-25000,25000,25000)"
       gradientUnits="userSpaceOnUse"
       r="1"
       cy="0"
       cx="0"
       fy="0"
       fx="0"><stop
         id="stop272"
         offset="0"
         style="stop-opacity:1;stop-color:#eaead6" /><stop
         id="stop274"
         offset="0.45699"
         style="stop-opacity:1;stop-color:#788e70" /><stop
         id="stop276"
         offset="1"
         style="stop-opacity:1;stop-color:#364128" /></radialGradient><clipPath
       id="clipPath288"
       clipPathUnits="userSpaceOnUse"><path
         id="path286"
         d="m 26110.3,44743.7 c -63,0 -114.2,51.1 -114.2,114.2 0,63 51.2,114.2 114.2,114.2 63.1,0 114.2,-51.2 114.2,-114.2 0,-63.1 -51.1,-114.2 -114.2,-114.2" /></clipPath><radialGradient
       id="radialGradient298"
       spreadMethod="pad"
       gradientTransform="matrix(25000,0,0,-25000,25000,25000)"
       gradientUnits="userSpaceOnUse"
       r="1"
       cy="0"
       cx="0"
       fy="0"
       fx="0"><stop
         id="stop292"
         offset="0"
         style="stop-opacity:1;stop-color:#eaead6" /><stop
         id="stop294"
         offset="0.45699"
         style="stop-opacity:1;stop-color:#788e70" /><stop
         id="stop296"
         offset="1"
         style="stop-opacity:1;stop-color:#364128" /></radialGradient><clipPath
       id="clipPath308"
       clipPathUnits="userSpaceOnUse"><path
         id="path306"
         d="m 24517.7,41516.8 c -57.9,0 -104.9,47 -104.9,105 0,57.9 47,104.9 104.9,104.9 58,0 105,-47 105,-104.9 0,-58 -47,-105 -105,-105" /></clipPath><radialGradient
       id="radialGradient318"
       spreadMethod="pad"
       gradientTransform="matrix(25000,0,0,-25000,25000,25000)"
       gradientUnits="userSpaceOnUse"
       r="1"
       cy="0"
       cx="0"
       fy="0"
       fx="0"><stop
         id="stop312"
         offset="0"
         style="stop-opacity:1;stop-color:#d5d2af" /><stop
         id="stop314"
         offset="0.45699"
         style="stop-opacity:1;stop-color:#939f74" /><stop
         id="stop316"
         offset="1"
         style="stop-opacity:1;stop-color:#6a714b" /></radialGradient><clipPath
       id="clipPath328"
       clipPathUnits="userSpaceOnUse"><path
         id="path326"
         d="m 23165.9,41825.4 c -54.6,0 -98.8,44.3 -98.8,98.8 0,54.6 44.2,98.8 98.8,98.8 54.5,0 98.7,-44.2 98.7,-98.8 0,-54.5 -44.2,-98.8 -98.7,-98.8" /></clipPath><radialGradient
       id="radialGradient338"
       spreadMethod="pad"
       gradientTransform="matrix(25000,0,0,-25000,25000,25000)"
       gradientUnits="userSpaceOnUse"
       r="1"
       cy="0"
       cx="0"
       fy="0"
       fx="0"><stop
         id="stop332"
         offset="0"
         style="stop-opacity:1;stop-color:#eaead6" /><stop
         id="stop334"
         offset="0.45699"
         style="stop-opacity:1;stop-color:#788e70" /><stop
         id="stop336"
         offset="1"
         style="stop-opacity:1;stop-color:#364128" /></radialGradient><clipPath
       id="clipPath352"
       clipPathUnits="userSpaceOnUse"><path
         id="path350"
         d="m 19104.1,37521.4 c -66.5,0 -120.3,53.9 -120.3,120.4 0,66.5 53.8,120.4 120.3,120.4 66.5,0 120.4,-53.9 120.4,-120.4 0,-66.5 -53.9,-120.4 -120.4,-120.4" /></clipPath><radialGradient
       id="radialGradient362"
       spreadMethod="pad"
       gradientTransform="matrix(25000,0,0,-25000,25000,25000)"
       gradientUnits="userSpaceOnUse"
       r="1"
       cy="0"
       cx="0"
       fy="0"
       fx="0"><stop
         id="stop356"
         offset="0"
         style="stop-opacity:1;stop-color:#f0f0e2" /><stop
         id="stop358"
         offset="0.45699"
         style="stop-opacity:1;stop-color:#718a6e" /><stop
         id="stop360"
         offset="1"
         style="stop-opacity:1;stop-color:#2a3520" /></radialGradient><clipPath
       id="clipPath380"
       clipPathUnits="userSpaceOnUse"><path
         id="path378"
         d="m 23863.4,37240.6 c -64.8,0 -117.3,52.5 -117.3,117.2 0,64.8 52.5,117.3 117.3,117.3 64.8,0 117.3,-52.5 117.3,-117.3 0,-64.7 -52.5,-117.2 -117.3,-117.2" /></clipPath><radialGradient
       id="radialGradient390"
       spreadMethod="pad"
       gradientTransform="matrix(25000,0,0,-25000,25000,25000)"
       gradientUnits="userSpaceOnUse"
       r="1"
       cy="0"
       cx="0"
       fy="0"
       fx="0"><stop
         id="stop384"
         offset="0"
         style="stop-opacity:1;stop-color:#d5d2af" /><stop
         id="stop386"
         offset="0.45699"
         style="stop-opacity:1;stop-color:#939f74" /><stop
         id="stop388"
         offset="1"
         style="stop-opacity:1;stop-color:#6a714b" /></radialGradient><clipPath
       id="clipPath412"
       clipPathUnits="userSpaceOnUse"><path
         id="path410"
         d="m 15663.8,34820.8 c -46.6,0 -84.4,37.8 -84.4,84.4 0,46.6 37.8,84.3 84.4,84.3 46.6,0 84.3,-37.7 84.3,-84.3 0,-46.6 -37.7,-84.4 -84.3,-84.4" /></clipPath><radialGradient
       id="radialGradient422"
       spreadMethod="pad"
       gradientTransform="matrix(25000,0,0,-25000,25000,25000)"
       gradientUnits="userSpaceOnUse"
       r="1"
       cy="0"
       cx="0"
       fy="0"
       fx="0"><stop
         id="stop416"
         offset="0"
         style="stop-opacity:1;stop-color:#d5d2af" /><stop
         id="stop418"
         offset="0.45699"
         style="stop-opacity:1;stop-color:#939f74" /><stop
         id="stop420"
         offset="1"
         style="stop-opacity:1;stop-color:#6a714b" /></radialGradient><clipPath
       id="clipPath452"
       clipPathUnits="userSpaceOnUse"><path
         id="path450"
         d="m 16618.5,29028.6 c -64.7,0 -117.3,52.5 -117.3,117.3 0,64.8 52.6,117.3 117.3,117.3 64.8,0 117.3,-52.5 117.3,-117.3 0,-64.8 -52.5,-117.3 -117.3,-117.3" /></clipPath><radialGradient
       id="radialGradient462"
       spreadMethod="pad"
       gradientTransform="matrix(25000,0,0,-25000,25000,25000)"
       gradientUnits="userSpaceOnUse"
       r="1"
       cy="0"
       cx="0"
       fy="0"
       fx="0"><stop
         id="stop456"
         offset="0"
         style="stop-opacity:1;stop-color:#d5d2af" /><stop
         id="stop458"
         offset="0.45699"
         style="stop-opacity:1;stop-color:#939f74" /><stop
         id="stop460"
         offset="1"
         style="stop-opacity:1;stop-color:#6a714b" /></radialGradient><clipPath
       id="clipPath472"
       clipPathUnits="userSpaceOnUse"><path
         id="path470"
         d="m 19836.6,31724.1 c -55.6,0 -100.8,45.1 -100.8,100.8 0,55.7 45.2,100.8 100.8,100.8 55.7,0 100.9,-45.1 100.9,-100.8 0,-55.7 -45.2,-100.8 -100.9,-100.8" /></clipPath><radialGradient
       id="radialGradient482"
       spreadMethod="pad"
       gradientTransform="matrix(25000,0,0,-25000,25000,25000)"
       gradientUnits="userSpaceOnUse"
       r="1"
       cy="0"
       cx="0"
       fy="0"
       fx="0"><stop
         id="stop476"
         offset="0"
         style="stop-opacity:1;stop-color:#d5d2af" /><stop
         id="stop478"
         offset="0.45699"
         style="stop-opacity:1;stop-color:#939f74" /><stop
         id="stop480"
         offset="1"
         style="stop-opacity:1;stop-color:#6a714b" /></radialGradient><clipPath
       id="clipPath492"
       clipPathUnits="userSpaceOnUse"><path
         id="path490"
         d="m 21326.4,32740.6 c -46.6,0 -84.4,37.7 -84.4,84.3 0,46.6 37.8,84.4 84.4,84.4 46.6,0 84.3,-37.8 84.3,-84.4 0,-46.6 -37.7,-84.3 -84.3,-84.3" /></clipPath><radialGradient
       id="radialGradient502"
       spreadMethod="pad"
       gradientTransform="matrix(25000,0,0,-25000,25000,25000)"
       gradientUnits="userSpaceOnUse"
       r="1"
       cy="0"
       cx="0"
       fy="0"
       fx="0"><stop
         id="stop496"
         offset="0"
         style="stop-opacity:1;stop-color:#eeeddd" /><stop
         id="stop498"
         offset="0.45699"
         style="stop-opacity:1;stop-color:#738c6f" /><stop
         id="stop500"
         offset="1"
         style="stop-opacity:1;stop-color:#2e3923" /></radialGradient><clipPath
       id="clipPath532"
       clipPathUnits="userSpaceOnUse"><path
         id="path530"
         d="m 13278.5,21856.3 c -51.1,0 -92.6,41.4 -92.6,92.5 0,51.2 41.5,92.6 92.6,92.6 51.1,0 92.6,-41.4 92.6,-92.6 0,-51.1 -41.5,-92.5 -92.6,-92.5" /></clipPath><radialGradient
       id="radialGradient542"
       spreadMethod="pad"
       gradientTransform="matrix(25000,0,0,-25000,25000,25000)"
       gradientUnits="userSpaceOnUse"
       r="1"
       cy="0"
       cx="0"
       fy="0"
       fx="0"><stop
         id="stop536"
         offset="0"
         style="stop-opacity:1;stop-color:#e7e5d0" /><stop
         id="stop538"
         offset="0.45699"
         style="stop-opacity:1;stop-color:#7c9270" /><stop
         id="stop540"
         offset="1"
         style="stop-opacity:1;stop-color:#3e492e" /></radialGradient><clipPath
       id="clipPath560"
       clipPathUnits="userSpaceOnUse"><path
         id="path558"
         d="m 25301.7,31123.3 c -50,0 -90.6,40.5 -90.6,90.5 0,50 40.6,90.5 90.6,90.5 50,0 90.5,-40.5 90.5,-90.5 0,-50 -40.5,-90.5 -90.5,-90.5" /></clipPath><radialGradient
       id="radialGradient570"
       spreadMethod="pad"
       gradientTransform="matrix(25000,0,0,-25000,25000,25000)"
       gradientUnits="userSpaceOnUse"
       r="1"
       cy="0"
       cx="0"
       fy="0"
       fx="0"><stop
         id="stop564"
         offset="0"
         style="stop-opacity:1;stop-color:#d5d2af" /><stop
         id="stop566"
         offset="0.45699"
         style="stop-opacity:1;stop-color:#939f74" /><stop
         id="stop568"
         offset="1"
         style="stop-opacity:1;stop-color:#6a714b" /></radialGradient><clipPath
       id="clipPath600"
       clipPathUnits="userSpaceOnUse"><path
         id="path598"
         d="m 32899.2,25484.3 c -66.5,0 -120.4,53.9 -120.4,120.4 0,66.5 53.9,120.4 120.4,120.4 66.5,0 120.4,-53.9 120.4,-120.4 0,-66.5 -53.9,-120.4 -120.4,-120.4" /></clipPath><radialGradient
       id="radialGradient610"
       spreadMethod="pad"
       gradientTransform="matrix(25000,0,0,-25000,25000,25000)"
       gradientUnits="userSpaceOnUse"
       r="1"
       cy="0"
       cx="0"
       fy="0"
       fx="0"><stop
         id="stop604"
         offset="0"
         style="stop-opacity:1;stop-color:#d5d2af" /><stop
         id="stop606"
         offset="0.45699"
         style="stop-opacity:1;stop-color:#939f74" /><stop
         id="stop608"
         offset="1"
         style="stop-opacity:1;stop-color:#6a714b" /></radialGradient><clipPath
       id="clipPath628"
       clipPathUnits="userSpaceOnUse"><path
         id="path626"
         d="m 41443.7,32983.3 c -50,0 -90.5,40.6 -90.5,90.6 0,50 40.5,90.5 90.5,90.5 50,0 90.5,-40.5 90.5,-90.5 0,-50 -40.5,-90.6 -90.5,-90.6" /></clipPath><radialGradient
       id="radialGradient638"
       spreadMethod="pad"
       gradientTransform="matrix(25000,0,0,-25000,25000,25000)"
       gradientUnits="userSpaceOnUse"
       r="1"
       cy="0"
       cx="0"
       fy="0"
       fx="0"><stop
         id="stop632"
         offset="0"
         style="stop-opacity:1;stop-color:#d5d2af" /><stop
         id="stop634"
         offset="0.45699"
         style="stop-opacity:1;stop-color:#939f74" /><stop
         id="stop636"
         offset="1"
         style="stop-opacity:1;stop-color:#6a714b" /></radialGradient><clipPath
       id="clipPath648"
       clipPathUnits="userSpaceOnUse"><path
         id="path646"
         d="m 33392.2,34283.8 c -65.9,0 -119.3,53.4 -119.3,119.3 0,65.9 53.4,119.3 119.3,119.3 66,0 119.4,-53.4 119.4,-119.3 0,-65.9 -53.4,-119.3 -119.4,-119.3" /></clipPath><radialGradient
       id="radialGradient658"
       spreadMethod="pad"
       gradientTransform="matrix(25000,0,0,-25000,25000,25000)"
       gradientUnits="userSpaceOnUse"
       r="1"
       cy="0"
       cx="0"
       fy="0"
       fx="0"><stop
         id="stop652"
         offset="0"
         style="stop-opacity:1;stop-color:#d5d2af" /><stop
         id="stop654"
         offset="0.45699"
         style="stop-opacity:1;stop-color:#939f74" /><stop
         id="stop656"
         offset="1"
         style="stop-opacity:1;stop-color:#6a714b" /></radialGradient><clipPath
       id="clipPath668"
       clipPathUnits="userSpaceOnUse"><path
         id="path666"
         d="m 30418,30544.8 c -66,0 -119.4,53.4 -119.4,119.3 0,66 53.4,119.4 119.4,119.4 65.9,0 119.3,-53.4 119.3,-119.4 0,-65.9 -53.4,-119.3 -119.3,-119.3" /></clipPath><radialGradient
       id="radialGradient678"
       spreadMethod="pad"
       gradientTransform="matrix(25000,0,0,-25000,25000,25000)"
       gradientUnits="userSpaceOnUse"
       r="1"
       cy="0"
       cx="0"
       fy="0"
       fx="0"><stop
         id="stop672"
         offset="0"
         style="stop-opacity:1;stop-color:#d5d2af" /><stop
         id="stop674"
         offset="0.45699"
         style="stop-opacity:1;stop-color:#939f74" /><stop
         id="stop676"
         offset="1"
         style="stop-opacity:1;stop-color:#6a714b" /></radialGradient><clipPath
       id="clipPath688"
       clipPathUnits="userSpaceOnUse"><path
         id="path686"
         d="m 6694.62,19366.8 c -65.9,0 -119.34,53.5 -119.34,119.4 0,65.9 53.44,119.3 119.34,119.3 65.91,0 119.35,-53.4 119.35,-119.3 0,-65.9 -53.44,-119.4 -119.35,-119.4" /></clipPath><radialGradient
       id="radialGradient698"
       spreadMethod="pad"
       gradientTransform="matrix(25000,0,0,-25000,25000,25000)"
       gradientUnits="userSpaceOnUse"
       r="1"
       cy="0"
       cx="0"
       fy="0"
       fx="0"><stop
         id="stop692"
         offset="0"
         style="stop-opacity:1;stop-color:#e7e5d0" /><stop
         id="stop694"
         offset="0.45699"
         style="stop-opacity:1;stop-color:#7c9270" /><stop
         id="stop696"
         offset="1"
         style="stop-opacity:1;stop-color:#3e492e" /></radialGradient><clipPath
       id="clipPath712"
       clipPathUnits="userSpaceOnUse"><path
         id="path710"
         d="m 33618.6,37411.4 c -50,0 -90.6,40.5 -90.6,90.5 0,50 40.6,90.5 90.6,90.5 50,0 90.5,-40.5 90.5,-90.5 0,-50 -40.5,-90.5 -90.5,-90.5" /></clipPath><radialGradient
       id="radialGradient722"
       spreadMethod="pad"
       gradientTransform="matrix(25000,0,0,-25000,25000,25000)"
       gradientUnits="userSpaceOnUse"
       r="1"
       cy="0"
       cx="0"
       fy="0"
       fx="0"><stop
         id="stop716"
         offset="0"
         style="stop-opacity:1;stop-color:#e7e5d0" /><stop
         id="stop718"
         offset="0.45699"
         style="stop-opacity:1;stop-color:#7c9270" /><stop
         id="stop720"
         offset="1"
         style="stop-opacity:1;stop-color:#3e492e" /></radialGradient><clipPath
       id="clipPath732"
       clipPathUnits="userSpaceOnUse"><path
         id="path730"
         d="m 28947.8,38789.9 c -54.6,0 -98.8,44.3 -98.8,98.8 0,54.6 44.2,98.8 98.8,98.8 54.5,0 98.7,-44.2 98.7,-98.8 0,-54.5 -44.2,-98.8 -98.7,-98.8" /></clipPath><radialGradient
       id="radialGradient742"
       spreadMethod="pad"
       gradientTransform="matrix(25000,0,0,-25000,25000,25000)"
       gradientUnits="userSpaceOnUse"
       r="1"
       cy="0"
       cx="0"
       fy="0"
       fx="0"><stop
         id="stop736"
         offset="0"
         style="stop-opacity:1;stop-color:#e7e5d0" /><stop
         id="stop738"
         offset="0.45699"
         style="stop-opacity:1;stop-color:#7c9270" /><stop
         id="stop740"
         offset="1"
         style="stop-opacity:1;stop-color:#3e492e" /></radialGradient><clipPath
       id="clipPath752"
       clipPathUnits="userSpaceOnUse"><path
         id="path750"
         d="m 35421.1,21693.7 c -54.6,0 -98.8,44.2 -98.8,98.7 0,54.6 44.2,98.8 98.8,98.8 54.5,0 98.7,-44.2 98.7,-98.8 0,-54.5 -44.2,-98.7 -98.7,-98.7" /></clipPath><radialGradient
       id="radialGradient762"
       spreadMethod="pad"
       gradientTransform="matrix(25000,0,0,-25000,25000,25000)"
       gradientUnits="userSpaceOnUse"
       r="1"
       cy="0"
       cx="0"
       fy="0"
       fx="0"><stop
         id="stop756"
         offset="0"
         style="stop-opacity:1;stop-color:#e7e5d0" /><stop
         id="stop758"
         offset="0.45699"
         style="stop-opacity:1;stop-color:#7c9270" /><stop
         id="stop760"
         offset="1"
         style="stop-opacity:1;stop-color:#3e492e" /></radialGradient><clipPath
       id="clipPath772"
       clipPathUnits="userSpaceOnUse"><path
         id="path770"
         d="m 30199.8,42333.2 c -54.5,0 -98.7,44.2 -98.7,98.7 0,54.6 44.2,98.8 98.7,98.8 54.6,0 98.8,-44.2 98.8,-98.8 0,-54.5 -44.2,-98.7 -98.8,-98.7" /></clipPath><radialGradient
       id="radialGradient782"
       spreadMethod="pad"
       gradientTransform="matrix(25000,0,0,-25000,25000,25000)"
       gradientUnits="userSpaceOnUse"
       r="1"
       cy="0"
       cx="0"
       fy="0"
       fx="0"><stop
         id="stop776"
         offset="0"
         style="stop-opacity:1;stop-color:#d5d2af" /><stop
         id="stop778"
         offset="0.45699"
         style="stop-opacity:1;stop-color:#939f74" /><stop
         id="stop780"
         offset="1"
         style="stop-opacity:1;stop-color:#6a714b" /></radialGradient><clipPath
       id="clipPath796"
       clipPathUnits="userSpaceOnUse"><path
         id="path794"
         d="m 28186.5,46203.6 c -52.3,0 -94.7,42.3 -94.7,94.6 0,52.3 42.4,94.7 94.7,94.7 52.2,0 94.6,-42.4 94.6,-94.7 0,-52.3 -42.4,-94.6 -94.6,-94.6" /></clipPath><radialGradient
       id="radialGradient806"
       spreadMethod="pad"
       gradientTransform="matrix(25000,0,0,-25000,25000,25000)"
       gradientUnits="userSpaceOnUse"
       r="1"
       cy="0"
       cx="0"
       fy="0"
       fx="0"><stop
         id="stop800"
         offset="0"
         style="stop-opacity:1;stop-color:#d5d2af" /><stop
         id="stop802"
         offset="0.45699"
         style="stop-opacity:1;stop-color:#939f74" /><stop
         id="stop804"
         offset="1"
         style="stop-opacity:1;stop-color:#6a714b" /></radialGradient><clipPath
       id="clipPath824"
       clipPathUnits="userSpaceOnUse"><path
         id="path822"
         d="m 19224.5,47816.7 c -55.7,0 -100.8,45.2 -100.8,100.9 0,55.6 45.1,100.8 100.8,100.8 55.7,0 100.8,-45.2 100.8,-100.8 0,-55.7 -45.1,-100.9 -100.8,-100.9" /></clipPath><radialGradient
       id="radialGradient834"
       spreadMethod="pad"
       gradientTransform="matrix(25000,0,0,-25000,25000,25000)"
       gradientUnits="userSpaceOnUse"
       r="1"
       cy="0"
       cx="0"
       fy="0"
       fx="0"><stop
         id="stop828"
         offset="0"
         style="stop-opacity:1;stop-color:#eaead6" /><stop
         id="stop830"
         offset="0.45699"
         style="stop-opacity:1;stop-color:#788e70" /><stop
         id="stop832"
         offset="1"
         style="stop-opacity:1;stop-color:#364128" /></radialGradient><clipPath
       id="clipPath844"
       clipPathUnits="userSpaceOnUse"><path
         id="path842"
         d="m 1145.73,31305.5 c -52.27,0 -94.64,42.3 -94.64,94.6 0,52.3 42.37,94.7 94.64,94.7 52.28,0 94.65,-42.4 94.65,-94.7 0,-52.3 -42.37,-94.6 -94.65,-94.6" /></clipPath><radialGradient
       id="radialGradient854"
       spreadMethod="pad"
       gradientTransform="matrix(25000,0,0,-25000,25000,25000)"
       gradientUnits="userSpaceOnUse"
       r="1"
       cy="0"
       cx="0"
       fy="0"
       fx="0"><stop
         id="stop848"
         offset="0"
         style="stop-opacity:1;stop-color:#d5d2af" /><stop
         id="stop850"
         offset="0.45699"
         style="stop-opacity:1;stop-color:#939f74" /><stop
         id="stop852"
         offset="1"
         style="stop-opacity:1;stop-color:#6a714b" /></radialGradient><clipPath
       id="clipPath876"
       clipPathUnits="userSpaceOnUse"><path
         id="path874"
         d="m 38087.2,47482.9 c -41.7,0 -75.6,33.8 -75.6,75.6 0,41.8 33.9,75.6 75.6,75.6 41.8,0 75.6,-33.8 75.6,-75.6 0,-41.8 -33.8,-75.6 -75.6,-75.6" /></clipPath><radialGradient
       id="radialGradient886"
       spreadMethod="pad"
       gradientTransform="matrix(25000,0,0,-25000,25000,25000)"
       gradientUnits="userSpaceOnUse"
       r="1"
       cy="0"
       cx="0"
       fy="0"
       fx="0"><stop
         id="stop880"
         offset="0"
         style="stop-opacity:1;stop-color:#eaead6" /><stop
         id="stop882"
         offset="0.45699"
         style="stop-opacity:1;stop-color:#788e70" /><stop
         id="stop884"
         offset="1"
         style="stop-opacity:1;stop-color:#364128" /></radialGradient><clipPath
       id="clipPath900"
       clipPathUnits="userSpaceOnUse"><path
         id="path898"
         d="m 40886.6,46285.4 c -55.4,0 -100.3,44.9 -100.3,100.3 0,55.4 44.9,100.3 100.3,100.3 55.4,0 100.3,-44.9 100.3,-100.3 0,-55.4 -44.9,-100.3 -100.3,-100.3" /></clipPath><radialGradient
       id="radialGradient910"
       spreadMethod="pad"
       gradientTransform="matrix(25000,0,0,-25000,25000,25000)"
       gradientUnits="userSpaceOnUse"
       r="1"
       cy="0"
       cx="0"
       fy="0"
       fx="0"><stop
         id="stop904"
         offset="0"
         style="stop-opacity:1;stop-color:#d5d2af" /><stop
         id="stop906"
         offset="0.45699"
         style="stop-opacity:1;stop-color:#939f74" /><stop
         id="stop908"
         offset="1"
         style="stop-opacity:1;stop-color:#6a714b" /></radialGradient><clipPath
       id="clipPath928"
       clipPathUnits="userSpaceOnUse"><path
         id="path926"
         d="m 44094.9,44948.9 c -46.8,0 -84.8,38 -84.8,84.9 0,46.9 38,84.9 84.8,84.9 46.9,0 84.9,-38 84.9,-84.9 0,-46.9 -38,-84.9 -84.9,-84.9" /></clipPath><radialGradient
       id="radialGradient938"
       spreadMethod="pad"
       gradientTransform="matrix(25000,0,0,-25000,25000,25000)"
       gradientUnits="userSpaceOnUse"
       r="1"
       cy="0"
       cx="0"
       fy="0"
       fx="0"><stop
         id="stop932"
         offset="0"
         style="stop-opacity:1;stop-color:#e9e7d2" /><stop
         id="stop934"
         offset="0.45699"
         style="stop-opacity:1;stop-color:#7a9171" /><stop
         id="stop936"
         offset="1"
         style="stop-opacity:1;stop-color:#3c452c" /></radialGradient><clipPath
       id="clipPath948"
       clipPathUnits="userSpaceOnUse"><path
         id="path946"
         d="m 45378.9,46650.1 c -46.6,0 -84.4,37.7 -84.4,84.3 0,46.6 37.8,84.4 84.4,84.4 46.6,0 84.4,-37.8 84.4,-84.4 0,-46.6 -37.8,-84.3 -84.4,-84.3" /></clipPath><radialGradient
       id="radialGradient958"
       spreadMethod="pad"
       gradientTransform="matrix(25000,0,0,-25000,25000,25000)"
       gradientUnits="userSpaceOnUse"
       r="1"
       cy="0"
       cx="0"
       fy="0"
       fx="0"><stop
         id="stop952"
         offset="0"
         style="stop-opacity:1;stop-color:#d5d2af" /><stop
         id="stop954"
         offset="0.45699"
         style="stop-opacity:1;stop-color:#939f74" /><stop
         id="stop956"
         offset="1"
         style="stop-opacity:1;stop-color:#6a714b" /></radialGradient><clipPath
       id="clipPath968"
       clipPathUnits="userSpaceOnUse"><path
         id="path966"
         d="m 44792.5,47114.1 c -66.5,0 -120.4,53.8 -120.4,120.3 0,66.5 53.9,120.4 120.4,120.4 66.5,0 120.4,-53.9 120.4,-120.4 0,-66.5 -53.9,-120.3 -120.4,-120.3" /></clipPath><radialGradient
       id="radialGradient978"
       spreadMethod="pad"
       gradientTransform="matrix(25000,0,0,-25000,25000,25000)"
       gradientUnits="userSpaceOnUse"
       r="1"
       cy="0"
       cx="0"
       fy="0"
       fx="0"><stop
         id="stop972"
         offset="0"
         style="stop-opacity:1;stop-color:#e7e5d0" /><stop
         id="stop974"
         offset="0.45699"
         style="stop-opacity:1;stop-color:#7c9270" /><stop
         id="stop976"
         offset="1"
         style="stop-opacity:1;stop-color:#3e492e" /></radialGradient><clipPath
       id="clipPath996"
       clipPathUnits="userSpaceOnUse"><path
         id="path994"
         d="m 49551.8,46533.8 c -61.4,0 -111.2,49.8 -111.2,111.1 0,61.4 49.8,111.1 111.2,111.1 61.3,0 111.1,-49.7 111.1,-111.1 0,-61.3 -49.8,-111.1 -111.1,-111.1" /></clipPath><radialGradient
       id="radialGradient1006"
       spreadMethod="pad"
       gradientTransform="matrix(25000,0,0,-25000,25000,25000)"
       gradientUnits="userSpaceOnUse"
       r="1"
       cy="0"
       cx="0"
       fy="0"
       fx="0"><stop
         id="stop1000"
         offset="0"
         style="stop-opacity:1;stop-color:#e7e5d0" /><stop
         id="stop1002"
         offset="0.45699"
         style="stop-opacity:1;stop-color:#7c9270" /><stop
         id="stop1004"
         offset="1"
         style="stop-opacity:1;stop-color:#3e492e" /></radialGradient><clipPath
       id="clipPath1016"
       clipPathUnits="userSpaceOnUse"><path
         id="path1014"
         d="m 49820.3,45200.5 c -73.3,0 -132.7,59.4 -132.7,132.7 0,73.3 59.4,132.7 132.7,132.7 73.3,0 132.7,-59.4 132.7,-132.7 0,-73.3 -59.4,-132.7 -132.7,-132.7" /></clipPath><radialGradient
       id="radialGradient1026"
       spreadMethod="pad"
       gradientTransform="matrix(25000,0,0,-25000,25000,25000)"
       gradientUnits="userSpaceOnUse"
       r="1"
       cy="0"
       cx="0"
       fy="0"
       fx="0"><stop
         id="stop1020"
         offset="0"
         style="stop-opacity:1;stop-color:#d5d2af" /><stop
         id="stop1022"
         offset="0.45699"
         style="stop-opacity:1;stop-color:#939f74" /><stop
         id="stop1024"
         offset="1"
         style="stop-opacity:1;stop-color:#6a714b" /></radialGradient><clipPath
       id="clipPath1036"
       clipPathUnits="userSpaceOnUse"><path
         id="path1034"
         d="m 48045.6,41265.3 c -68.2,0 -123.5,55.2 -123.5,123.4 0,68.2 55.3,123.5 123.5,123.5 68.2,0 123.4,-55.3 123.4,-123.5 0,-68.2 -55.2,-123.4 -123.4,-123.4" /></clipPath><radialGradient
       id="radialGradient1046"
       spreadMethod="pad"
       gradientTransform="matrix(25000,0,0,-25000,25000,25000)"
       gradientUnits="userSpaceOnUse"
       r="1"
       cy="0"
       cx="0"
       fy="0"
       fx="0"><stop
         id="stop1040"
         offset="0"
         style="stop-opacity:1;stop-color:#d5d2af" /><stop
         id="stop1042"
         offset="0.45699"
         style="stop-opacity:1;stop-color:#939f74" /><stop
         id="stop1044"
         offset="1"
         style="stop-opacity:1;stop-color:#6a714b" /></radialGradient><clipPath
       id="clipPath1056"
       clipPathUnits="userSpaceOnUse"><path
         id="path1054"
         d="m 46161.8,39396.9 c -51.1,0 -92.6,41.5 -92.6,92.6 0,51.2 41.5,92.6 92.6,92.6 51.2,0 92.6,-41.4 92.6,-92.6 0,-51.1 -41.4,-92.6 -92.6,-92.6" /></clipPath><radialGradient
       id="radialGradient1066"
       spreadMethod="pad"
       gradientTransform="matrix(25000,0,0,-25000,25000,25000)"
       gradientUnits="userSpaceOnUse"
       r="1"
       cy="0"
       cx="0"
       fy="0"
       fx="0"><stop
         id="stop1060"
         offset="0"
         style="stop-opacity:1;stop-color:#ebead7" /><stop
         id="stop1062"
         offset="0.45699"
         style="stop-opacity:1;stop-color:#778e70" /><stop
         id="stop1064"
         offset="1"
         style="stop-opacity:1;stop-color:#353f27" /></radialGradient><clipPath
       id="clipPath1076"
       clipPathUnits="userSpaceOnUse"><path
         id="path1074"
         d="m 4663.93,34585.2 c -46.6,0 -84.37,37.8 -84.37,84.4 0,46.6 37.77,84.3 84.37,84.3 46.58,0 84.35,-37.7 84.35,-84.3 0,-46.6 -37.77,-84.4 -84.35,-84.4" /></clipPath><radialGradient
       id="radialGradient1086"
       spreadMethod="pad"
       gradientTransform="matrix(25000,0,0,-25000,25000,25000)"
       gradientUnits="userSpaceOnUse"
       r="1"
       cy="0"
       cx="0"
       fy="0"
       fx="0"><stop
         id="stop1080"
         offset="0"
         style="stop-opacity:1;stop-color:#d5d2af" /><stop
         id="stop1082"
         offset="0.45699"
         style="stop-opacity:1;stop-color:#939f74" /><stop
         id="stop1084"
         offset="1"
         style="stop-opacity:1;stop-color:#6a714b" /></radialGradient><clipPath
       id="clipPath1100"
       clipPathUnits="userSpaceOnUse"><path
         id="path1098"
         d="m 4178.32,24700.5 c -61.36,0 -111.1,49.7 -111.1,111.1 0,61.4 49.74,111.1 111.1,111.1 61.37,0 111.11,-49.7 111.11,-111.1 0,-61.4 -49.74,-111.1 -111.11,-111.1" /></clipPath><radialGradient
       id="radialGradient1110"
       spreadMethod="pad"
       gradientTransform="matrix(25000,0,0,-25000,25000,25000)"
       gradientUnits="userSpaceOnUse"
       r="1"
       cy="0"
       cx="0"
       fy="0"
       fx="0"><stop
         id="stop1104"
         offset="0"
         style="stop-opacity:1;stop-color:#e7e5d0" /><stop
         id="stop1106"
         offset="0.45699"
         style="stop-opacity:1;stop-color:#7c9270" /><stop
         id="stop1108"
         offset="1"
         style="stop-opacity:1;stop-color:#3e492e" /></radialGradient><clipPath
       id="clipPath1120"
       clipPathUnits="userSpaceOnUse"><path
         id="path1118"
         d="m 9345.74,23910.5 c -61.36,0 -111.11,49.7 -111.11,111.1 0,61.4 49.75,111.1 111.11,111.1 61.37,0 111.11,-49.7 111.11,-111.1 0,-61.4 -49.74,-111.1 -111.11,-111.1" /></clipPath><radialGradient
       id="radialGradient1130"
       spreadMethod="pad"
       gradientTransform="matrix(25000,0,0,-25000,25000,25000)"
       gradientUnits="userSpaceOnUse"
       r="1"
       cy="0"
       cx="0"
       fy="0"
       fx="0"><stop
         id="stop1124"
         offset="0"
         style="stop-opacity:1;stop-color:#d5d2af" /><stop
         id="stop1126"
         offset="0.45699"
         style="stop-opacity:1;stop-color:#939f74" /><stop
         id="stop1128"
         offset="1"
         style="stop-opacity:1;stop-color:#6a714b" /></radialGradient><clipPath
       id="clipPath1140"
       clipPathUnits="userSpaceOnUse"><path
         id="path1138"
         d="m 4446.84,23367.2 c -73.3,0 -132.71,59.4 -132.71,132.7 0,73.3 59.41,132.7 132.71,132.7 73.3,0 132.72,-59.4 132.72,-132.7 0,-73.3 -59.42,-132.7 -132.72,-132.7" /></clipPath><radialGradient
       id="radialGradient1150"
       spreadMethod="pad"
       gradientTransform="matrix(25000,0,0,-25000,25000,25000)"
       gradientUnits="userSpaceOnUse"
       r="1"
       cy="0"
       cx="0"
       fy="0"
       fx="0"><stop
         id="stop1144"
         offset="0"
         style="stop-opacity:1;stop-color:#d5d2af" /><stop
         id="stop1146"
         offset="0.45699"
         style="stop-opacity:1;stop-color:#939f74" /><stop
         id="stop1148"
         offset="1"
         style="stop-opacity:1;stop-color:#6a714b" /></radialGradient><clipPath
       id="clipPath1160"
       clipPathUnits="userSpaceOnUse"><path
         id="path1158"
         d="m 7645.75,25871.8 c -73.3,0 -132.72,59.4 -132.72,132.7 0,73.3 59.42,132.7 132.72,132.7 73.29,0 132.71,-59.4 132.71,-132.7 0,-73.3 -59.42,-132.7 -132.71,-132.7" /></clipPath><radialGradient
       id="radialGradient1170"
       spreadMethod="pad"
       gradientTransform="matrix(25000,0,0,-25000,25000,25000)"
       gradientUnits="userSpaceOnUse"
       r="1"
       cy="0"
       cx="0"
       fy="0"
       fx="0"><stop
         id="stop1164"
         offset="0"
         style="stop-opacity:1;stop-color:#eae8d5" /><stop
         id="stop1166"
         offset="0.45699"
         style="stop-opacity:1;stop-color:#798f70" /><stop
         id="stop1168"
         offset="1"
         style="stop-opacity:1;stop-color:#384229" /></radialGradient><clipPath
       id="clipPath1192"
       clipPathUnits="userSpaceOnUse"><path
         id="path1190"
         d="m 40198.8,38584.2 c -68.1,0 -123.4,55.3 -123.4,123.4 0,68.2 55.3,123.5 123.4,123.5 68.2,0 123.5,-55.3 123.5,-123.5 0,-68.1 -55.3,-123.4 -123.5,-123.4" /></clipPath><radialGradient
       id="radialGradient1202"
       spreadMethod="pad"
       gradientTransform="matrix(25000,0,0,-25000,25000,25000)"
       gradientUnits="userSpaceOnUse"
       r="1"
       cy="0"
       cx="0"
       fy="0"
       fx="0"><stop
         id="stop1196"
         offset="0"
         style="stop-opacity:1;stop-color:#d5d2af" /><stop
         id="stop1198"
         offset="0.45699"
         style="stop-opacity:1;stop-color:#939f74" /><stop
         id="stop1200"
         offset="1"
         style="stop-opacity:1;stop-color:#6a714b" /></radialGradient><clipPath
       id="clipPath1216"
       clipPathUnits="userSpaceOnUse"><path
         id="path1214"
         d="m 37569.2,41078 c -59.1,0 -107,47.9 -107,107 0,59.1 47.9,107 107,107 59.1,0 107,-47.9 107,-107 0,-59.1 -47.9,-107 -107,-107" /></clipPath><radialGradient
       id="radialGradient1226"
       spreadMethod="pad"
       gradientTransform="matrix(25000,0,0,-25000,25000,25000)"
       gradientUnits="userSpaceOnUse"
       r="1"
       cy="0"
       cx="0"
       fy="0"
       fx="0"><stop
         id="stop1220"
         offset="0"
         style="stop-opacity:1;stop-color:#e9e7d2" /><stop
         id="stop1222"
         offset="0.45699"
         style="stop-opacity:1;stop-color:#7a9171" /><stop
         id="stop1224"
         offset="1"
         style="stop-opacity:1;stop-color:#3c452c" /></radialGradient><clipPath
       id="clipPath1236"
       clipPathUnits="userSpaceOnUse"><path
         id="path1234"
         d="m 35635,41892.8 c -63.6,0 -115.2,51.6 -115.2,115.3 0,63.6 51.6,115.2 115.2,115.2 63.7,0 115.3,-51.6 115.3,-115.2 0,-63.7 -51.6,-115.3 -115.3,-115.3" /></clipPath><radialGradient
       id="radialGradient1246"
       spreadMethod="pad"
       gradientTransform="matrix(25000,0,0,-25000,25000,25000)"
       gradientUnits="userSpaceOnUse"
       r="1"
       cy="0"
       cx="0"
       fy="0"
       fx="0"><stop
         id="stop1240"
         offset="0"
         style="stop-opacity:1;stop-color:#d5d2af" /><stop
         id="stop1242"
         offset="0.45699"
         style="stop-opacity:1;stop-color:#939f74" /><stop
         id="stop1244"
         offset="1"
         style="stop-opacity:1;stop-color:#6a714b" /></radialGradient><clipPath
       id="clipPath1256"
       clipPathUnits="userSpaceOnUse"><path
         id="path1254"
         d="m 40556.9,24829 c -63.7,0 -115.2,51.6 -115.2,115.2 0,63.7 51.5,115.2 115.2,115.2 63.6,0 115.2,-51.5 115.2,-115.2 0,-63.6 -51.6,-115.2 -115.2,-115.2" /></clipPath><radialGradient
       id="radialGradient1266"
       spreadMethod="pad"
       gradientTransform="matrix(25000,0,0,-25000,25000,25000)"
       gradientUnits="userSpaceOnUse"
       r="1"
       cy="0"
       cx="0"
       fy="0"
       fx="0"><stop
         id="stop1260"
         offset="0"
         style="stop-opacity:1;stop-color:#e7e6d0" /><stop
         id="stop1262"
         offset="0.45699"
         style="stop-opacity:1;stop-color:#7b9171" /><stop
         id="stop1264"
         offset="1"
         style="stop-opacity:1;stop-color:#3e472c" /></radialGradient><clipPath
       id="clipPath1288"
       clipPathUnits="userSpaceOnUse"><path
         id="path1286"
         d="m 43445.3,31419.5 c -52,0 -94.2,42.2 -94.2,94.2 0,52 42.2,94.1 94.2,94.1 51.9,0 94.1,-42.1 94.1,-94.1 0,-52 -42.2,-94.2 -94.1,-94.2" /></clipPath><radialGradient
       id="radialGradient1298"
       spreadMethod="pad"
       gradientTransform="matrix(25000,0,0,-25000,25000,25000)"
       gradientUnits="userSpaceOnUse"
       r="1"
       cy="0"
       cx="0"
       fy="0"
       fx="0"><stop
         id="stop1292"
         offset="0"
         style="stop-opacity:1;stop-color:#d5d2af" /><stop
         id="stop1294"
         offset="0.45699"
         style="stop-opacity:1;stop-color:#939f74" /><stop
         id="stop1296"
         offset="1"
         style="stop-opacity:1;stop-color:#6a714b" /></radialGradient><clipPath
       id="clipPath1308"
       clipPathUnits="userSpaceOnUse"><path
         id="path1306"
         d="m 44645.9,31674.2 c -57.1,0 -103.4,46.3 -103.4,103.4 0,57.1 46.3,103.4 103.4,103.4 57.1,0 103.4,-46.3 103.4,-103.4 0,-57.1 -46.3,-103.4 -103.4,-103.4" /></clipPath><radialGradient
       id="radialGradient1318"
       spreadMethod="pad"
       gradientTransform="matrix(25000,0,0,-25000,25000,25000)"
       gradientUnits="userSpaceOnUse"
       r="1"
       cy="0"
       cx="0"
       fy="0"
       fx="0"><stop
         id="stop1312"
         offset="0"
         style="stop-opacity:1;stop-color:#d5d2af" /><stop
         id="stop1314"
         offset="0.45699"
         style="stop-opacity:1;stop-color:#939f74" /><stop
         id="stop1316"
         offset="1"
         style="stop-opacity:1;stop-color:#6a714b" /></radialGradient><clipPath
       id="clipPath1336"
       clipPathUnits="userSpaceOnUse"><path
         id="path1334"
         d="m 49118.6,36536.9 c -63.6,0 -115.2,51.5 -115.2,115.2 0,63.6 51.6,115.2 115.2,115.2 63.7,0 115.3,-51.6 115.3,-115.2 0,-63.7 -51.6,-115.2 -115.3,-115.2" /></clipPath><radialGradient
       id="radialGradient1346"
       spreadMethod="pad"
       gradientTransform="matrix(25000,0,0,-25000,25000,25000)"
       gradientUnits="userSpaceOnUse"
       r="1"
       cy="0"
       cx="0"
       fy="0"
       fx="0"><stop
         id="stop1340"
         offset="0"
         style="stop-opacity:1;stop-color:#d5d2af" /><stop
         id="stop1342"
         offset="0.45699"
         style="stop-opacity:1;stop-color:#939f74" /><stop
         id="stop1344"
         offset="1"
         style="stop-opacity:1;stop-color:#6a714b" /></radialGradient><clipPath
       id="clipPath1360"
       clipPathUnits="userSpaceOnUse"><path
         id="path1358"
         d="m 47151.5,36785.8 c -65.9,0 -119.3,53.5 -119.3,119.4 0,65.9 53.4,119.3 119.3,119.3 66,0 119.4,-53.4 119.4,-119.3 0,-65.9 -53.4,-119.4 -119.4,-119.4" /></clipPath><radialGradient
       id="radialGradient1370"
       spreadMethod="pad"
       gradientTransform="matrix(25000,0,0,-25000,25000,25000)"
       gradientUnits="userSpaceOnUse"
       r="1"
       cy="0"
       cx="0"
       fy="0"
       fx="0"><stop
         id="stop1364"
         offset="0"
         style="stop-opacity:1;stop-color:#ebead7" /><stop
         id="stop1366"
         offset="0.45699"
         style="stop-opacity:1;stop-color:#778e70" /><stop
         id="stop1368"
         offset="1"
         style="stop-opacity:1;stop-color:#353f27" /></radialGradient><clipPath
       id="clipPath1384"
       clipPathUnits="userSpaceOnUse"><path
         id="path1382"
         d="m 1462.93,43804.9 c -61.35,0 -111.11,49.7 -111.11,111.1 0,61.4 49.76,111.1 111.11,111.1 61.37,0 111.12,-49.7 111.12,-111.1 0,-61.4 -49.75,-111.1 -111.12,-111.1" /></clipPath><radialGradient
       id="radialGradient1394"
       spreadMethod="pad"
       gradientTransform="matrix(25000,0,0,-25000,25000,25000)"
       gradientUnits="userSpaceOnUse"
       r="1"
       cy="0"
       cx="0"
       fy="0"
       fx="0"><stop
         id="stop1388"
         offset="0"
         style="stop-opacity:1;stop-color:#e7e5d0" /><stop
         id="stop1390"
         offset="0.45699"
         style="stop-opacity:1;stop-color:#7c9270" /><stop
         id="stop1392"
         offset="1"
         style="stop-opacity:1;stop-color:#3e492e" /></radialGradient><clipPath
       id="clipPath1404"
       clipPathUnits="userSpaceOnUse"><path
         id="path1402"
         d="m 6630.36,43014.9 c -61.36,0 -111.12,49.7 -111.12,111.1 0,61.4 49.76,111.1 111.12,111.1 61.37,0 111.11,-49.7 111.11,-111.1 0,-61.4 -49.74,-111.1 -111.11,-111.1" /></clipPath><radialGradient
       id="radialGradient1414"
       spreadMethod="pad"
       gradientTransform="matrix(25000,0,0,-25000,25000,25000)"
       gradientUnits="userSpaceOnUse"
       r="1"
       cy="0"
       cx="0"
       fy="0"
       fx="0"><stop
         id="stop1408"
         offset="0"
         style="stop-opacity:1;stop-color:#d5d2af" /><stop
         id="stop1410"
         offset="0.45699"
         style="stop-opacity:1;stop-color:#939f74" /><stop
         id="stop1412"
         offset="1"
         style="stop-opacity:1;stop-color:#6a714b" /></radialGradient><clipPath
       id="clipPath1424"
       clipPathUnits="userSpaceOnUse"><path
         id="path1422"
         d="m 1731.46,42471.6 c -73.3,0 -132.72,59.4 -132.72,132.7 0,73.3 59.42,132.7 132.72,132.7 73.3,0 132.72,-59.4 132.72,-132.7 0,-73.3 -59.42,-132.7 -132.72,-132.7" /></clipPath><radialGradient
       id="radialGradient1434"
       spreadMethod="pad"
       gradientTransform="matrix(25000,0,0,-25000,25000,25000)"
       gradientUnits="userSpaceOnUse"
       r="1"
       cy="0"
       cx="0"
       fy="0"
       fx="0"><stop
         id="stop1428"
         offset="0"
         style="stop-opacity:1;stop-color:#d5d2af" /><stop
         id="stop1430"
         offset="0.45699"
         style="stop-opacity:1;stop-color:#939f74" /><stop
         id="stop1432"
         offset="1"
         style="stop-opacity:1;stop-color:#6a714b" /></radialGradient><clipPath
       id="clipPath1444"
       clipPathUnits="userSpaceOnUse"><path
         id="path1442"
         d="m 4930.36,44976.2 c -73.3,0 -132.72,59.4 -132.72,132.7 0,73.3 59.42,132.7 132.72,132.7 73.29,0 132.72,-59.4 132.72,-132.7 0,-73.3 -59.43,-132.7 -132.72,-132.7" /></clipPath><radialGradient
       id="radialGradient1454"
       spreadMethod="pad"
       gradientTransform="matrix(25000,0,0,-25000,25000,25000)"
       gradientUnits="userSpaceOnUse"
       r="1"
       cy="0"
       cx="0"
       fy="0"
       fx="0"><stop
         id="stop1448"
         offset="0"
         style="stop-opacity:1;stop-color:#eae8d5" /><stop
         id="stop1450"
         offset="0.45699"
         style="stop-opacity:1;stop-color:#798f70" /><stop
         id="stop1452"
         offset="1"
         style="stop-opacity:1;stop-color:#384229" /></radialGradient><clipPath
       id="clipPath1472"
       clipPathUnits="userSpaceOnUse"><path
         id="path1470"
         d="m 1731.46,38412.9 c -68.19,0 -123.45,55.3 -123.45,123.5 0,68.1 55.26,123.4 123.45,123.4 68.18,0 123.46,-55.3 123.46,-123.4 0,-68.2 -55.28,-123.5 -123.46,-123.5" /></clipPath><radialGradient
       id="radialGradient1482"
       spreadMethod="pad"
       gradientTransform="matrix(25000,0,0,-25000,25000,25000)"
       gradientUnits="userSpaceOnUse"
       r="1"
       cy="0"
       cx="0"
       fy="0"
       fx="0"><stop
         id="stop1476"
         offset="0"
         style="stop-opacity:1;stop-color:#d5d2af" /><stop
         id="stop1478"
         offset="0.45699"
         style="stop-opacity:1;stop-color:#939f74" /><stop
         id="stop1480"
         offset="1"
         style="stop-opacity:1;stop-color:#6a714b" /></radialGradient><clipPath
       id="clipPath1492"
       clipPathUnits="userSpaceOnUse"><path
         id="path1490"
         d="m 6287.11,36544.6 c -68.18,0 -123.45,55.2 -123.45,123.4 0,68.2 55.27,123.5 123.45,123.5 68.18,0 123.46,-55.3 123.46,-123.5 0,-68.2 -55.28,-123.4 -123.46,-123.4" /></clipPath><radialGradient
       id="radialGradient1502"
       spreadMethod="pad"
       gradientTransform="matrix(25000,0,0,-25000,25000,25000)"
       gradientUnits="userSpaceOnUse"
       r="1"
       cy="0"
       cx="0"
       fy="0"
       fx="0"><stop
         id="stop1496"
         offset="0"
         style="stop-opacity:1;stop-color:#d5d2af" /><stop
         id="stop1498"
         offset="0.45699"
         style="stop-opacity:1;stop-color:#939f74" /><stop
         id="stop1500"
         offset="1"
         style="stop-opacity:1;stop-color:#6a714b" /></radialGradient><clipPath
       id="clipPath1516"
       clipPathUnits="userSpaceOnUse"><path
         id="path1514"
         d="m 1029.81,33807.9 c -63.638,0 -115.232,51.6 -115.232,115.3 0,63.6 51.594,115.2 115.232,115.2 63.64,0 115.23,-51.6 115.23,-115.2 0,-63.7 -51.59,-115.3 -115.23,-115.3" /></clipPath><radialGradient
       id="radialGradient1526"
       spreadMethod="pad"
       gradientTransform="matrix(25000,0,0,-25000,25000,25000)"
       gradientUnits="userSpaceOnUse"
       r="1"
       cy="0"
       cx="0"
       fy="0"
       fx="0"><stop
         id="stop1520"
         offset="0"
         style="stop-opacity:1;stop-color:#d5d2af" /><stop
         id="stop1522"
         offset="0.45699"
         style="stop-opacity:1;stop-color:#939f74" /><stop
         id="stop1524"
         offset="1"
         style="stop-opacity:1;stop-color:#6a714b" /></radialGradient><clipPath
       id="clipPath1544"
       clipPathUnits="userSpaceOnUse"><path
         id="path1542"
         d="m 36400.5,35469 c -75,0 -135.8,60.7 -135.8,135.8 0,75 60.8,135.8 135.8,135.8 75,0 135.8,-60.8 135.8,-135.8 0,-75.1 -60.8,-135.8 -135.8,-135.8" /></clipPath><radialGradient
       id="radialGradient1554"
       spreadMethod="pad"
       gradientTransform="matrix(25000,0,0,-25000,25000,25000)"
       gradientUnits="userSpaceOnUse"
       r="1"
       cy="0"
       cx="0"
       fy="0"
       fx="0"><stop
         id="stop1548"
         offset="0"
         style="stop-opacity:1;stop-color:#e9e7d2" /><stop
         id="stop1550"
         offset="0.45699"
         style="stop-opacity:1;stop-color:#7a9171" /><stop
         id="stop1552"
         offset="1"
         style="stop-opacity:1;stop-color:#3c452c" /></radialGradient></defs><g
     transform="matrix(1.3333333,0,0,-1.3333333,0,6666.6667)"
     id="g10"><g
       transform="scale(0.1)"
       id="g12"><g
         id="g14"><g
           clip-path="url(#clipPath20)"
           id="g16"><g
             transform="scale(3.06748)"
             id="g22" /></g></g><g
         transform="matrix(4.4333973,0,0,4.4468616,-98952.17,-3050.3791)"
         id="g1558"><path
           id="path1560"
           style="fill:#f6e563;fill-opacity:1;fill-rule:nonzero;stroke:none"
           d="m 22376.656,6298.3924 c 0,-319.5 26.89,-632.8 78.56,-937.53 379.19,-2237.66 2092.75,-4021.41 4293.56,-4504.13999 69.75,-15.3 140.02,-29.3 210.81,-41.95 320.62,-57.38 650.91,-87.36 988.06,-87.36 1894.6,0 3568.3,945.85999 4574.8,2391.10999 363.4,521.76 639.8,1108.7 808.3,1739.78 122.5,459.33 187.9,942.09 187.9,1440.09 0,519 -71,1021.5 -203.8,1498.1997 -99.3,356.4 -233.1,698.4 -397.7,1022.1 -57.5,113.3 -118.9,224.5 -183.8,333.2 -166.8,279.1 -357.2,542.3 -568.6,786.9 v 0.1 c -1021.6,1182.1999 -2532,1930.4999 -4217.1,1930.4999 -1979.89,0 -3718.47,-1032.8 -4706.42,-2588.9999 -547.6,-862.2 -864.57,-1884.9997 -864.57,-2981.9997"
           inkscape:connector-curvature="0" /></g><g
         transform="matrix(4.4333973,0,0,4.4468616,-98952.17,-3050.3791)"
         id="g1562"><path
           id="path1564"
           style="fill:#f3db4d;fill-opacity:1;fill-rule:nonzero;stroke:none"
           d="m 23170.996,3783.3521 h 5.59 c 70.55,0 103.07,-39.97 150.02,-63.56 -3.29,-119.8 88.47,-198.28 52.71,-313.25 -1.16,0 -1.16,0 -1.16,0 -150.05,0 -231.78,194.79 -207.16,376.81 z m 2712.41,-1712.17 c 7.86,2.26 16.74,3.37 26.89,4.64 8.92,1.03 19.03,0.95 29.07,0.95 66.14,0 142.32,-18.96 171.39,-56.9 11.18,-1.27 20.19,-1.2 29.07,-1.2 38.07,0 63.84,12.5 90.73,25.82 25.78,13.48 52.7,27.16 94.06,27.16 h 4.48 c -16.77,-95.8 50.37,-144.86 114.33,-194.11 4.44,-53.81 -10.15,-86.92 -31.45,-112.46 h -134.31 c -41.52,0 -81.77,-3.81 -114.25,5.19 -43.66,-6.82 -24.62,-72.29 -62.69,-97.83 0,0 -1.15,0 -2.3,0 -16.74,0 -26.89,9.68 -32.48,20.82 -11.18,23.52 -5.59,65.55 -5.59,99.06 -75.03,77.29 -132.14,172.46 -176.95,278.86 z m 11.15,-547.61 c 19.07,46.99 49.37,135.47 104.21,135.47 15.63,0 32.52,-6.62 51.55,-22.37 10.04,-79.59 -49.37,-89.58 -62.81,-144.54 107.63,-62.62 248.64,-30.1 341.59,-104.1 44.89,-34.66 57.11,-90.65 104.18,-124.28 24.63,36.92 66.03,54.84 106.4,54.84 29.18,0 58.25,-8.92 79.47,-26.8 28.03,-22.45 43.78,-60.56 30.33,-109.81 -13.48,-5.59 -26.92,-7.85 -40.37,-7.85 -51.43,0 -101.91,33.63 -145.61,49.37 -47.07,-25.9 -95.1,-35.93 -143.32,-35.93 -104.17,0 -204.98,49.25 -281.04,97.47 -41.48,86.22 -58.25,198.16 -144.58,238.53 z m 5862.79,4769.92 h 7.8 c 93.1,0 78.4,-125.7 71.8,-236.5 8.9,-4.4 17.9,-5.7 25.7,-5.7 16.8,0 32.4,10 49.3,19 17.9,10 36.9,18.8 61.5,18.8 h 7.9 c 35.8,-57.5 89.6,-98.8 145.6,-135.7 4.5,-84 -45.9,-114.2 -114.2,-125.5 -55,54.9 -91.8,145.1 -175.8,186.6 -5.6,2.3 -12.4,1.2 -19.1,1.2 h -10.1 c -12.3,0 -23.5,1 -32.4,7.9 -55,43.7 -156.9,269.9 -18,269.9 z m 1415.6,142.1 c 20.2,0 42.5,-6.9 61.6,-15.8 13.4,-51.5 -15.7,-71.5 -49.3,-71.5 -20.2,0 -40.4,7.7 -53.8,20 -8.9,51.5 13.4,67.3 41.5,67.3 z m -228.5,2025.7 c -7.8,-26.8 -24.6,-50.5 -51.5,-50.5 h -3.3 c -40.4,0 -30.2,48.3 -48.2,70.6 -16.8,-4.4 -32.4,-8.8 -45.9,-8.8 -46,0 -80.6,25.8 -99.6,58.3 -6.8,11.2 -11.2,23.4 -14.8,34.7 -13.3,47 -1,94.1 43.8,94.1 16.8,0 38.1,-6.8 65,-23.5 33.5,-22.5 44.7,-96.4 61.6,-114.3 21.3,-21.3 77.3,-29 90.7,-57.1 1.2,-1.2 2.2,-2.3 2.2,-3.5 z m -1107.5,1033.9 c 20,-87.4 78.3,-153.5 72.7,-238.7 -7.9,-127.6 -198.2,-285.5 -279.9,-300.1 -10.1,-1.1 -19.1,-2.1 -29.2,-2.1 -99.6,0 -210.6,78.3 -271,106.2 -127.7,60.6 -265.4,100.9 -310.2,196 -29.1,60.6 -15.7,108.7 -41.4,145.7 -89.6,126.5 -346,209.4 -259.9,424.4 15.8,34.8 61.6,41.4 84.1,72.9 48.1,71.5 52.5,171.1999 114.2,217.1999 59.3,2.2 92.9,29 133.2,51.5 51.5,-34.8 130,-85.1 193.8,-85.1 44.7,0 81.7,24.7 97.4,95.1 96.3,-31.3 175.8,-78.3 206,-175.8 109.8,-35.7999 175.9,-138.8999 258.8,-238.4999 87.3,-103.1 165.7,-184.8 31.4,-268.7 z m -4027.26,1533.0999 c -22.49,6.7 -42.55,10 -61.59,10 -73.99,0 -129.95,-44.7 -184.79,-88.4 -54.85,-44.9 -108.66,-89.5 -178.1,-89.5 -6.62,0 -14.59,0 -21.33,1 -43.66,5.6 -80.62,57.1 -124.28,62.7 -10.03,1.1 -21.18,2.3 -32.48,2.3 -54.84,0 -110.84,-16.8 -167.94,-33.6 -56,-16.8 -113.1,-32.4 -172.5,-32.4 -26.81,0 -54.85,3.3 -81.77,11 -20.07,79.6 6.74,150.2 81.77,166.9 4.56,0 7.85,1.2 12.41,1.2 12.21,0 26.81,-3.3 39.1,-7.9 12.33,-2.2 24.62,-5.6 38.11,-5.6 4.44,0 10.03,1.2 14.59,2.3 65.99,14.5 110.8,96.2 186.98,133.3 118.69,59.3 247.53,94 379.66,94 90.73,0 181.5,-16.8 272.16,-52.6 15.62,-38.1 15.62,-137.7 0,-174.7 z m -1594.71,-394.1 c -29.19,-85.3 -84.03,-142.3 -144.59,-197.3 -70.47,37 -101.92,112 -186.98,135.6 -75.03,-12.3 -96.24,-68.4 -155.65,-94.1 -87.32,-37.1 -191.53,-23.5 -289.01,-51.5 -73.87,-21.4 -164.53,-98.6 -227.22,-154.5 -67.3,-58.3 -101.96,-149.1 -187.1,-177.1 -13.48,-4.5 -29.07,-5.8 -46.99,-5.8 -6.74,0 -14.59,1.1 -22.45,1.1 h -22.36 c -19.04,0 -37.04,-1.1 -52.66,-5.5 -43.67,-12.2 -64.88,-65.8 -114.25,-82.7 -26.89,-8.8999 -51.55,-12.3999 -76.18,-12.3999 -44.77,0 -87.32,12.2999 -141.02,22.2999 -52.66,81.9 -3.41,134.2 81.73,197 47,33.5 89.51,78 135.47,103.7 165.76,88.5 346.03,83.1 434.5,205.2 71.7,29.1 153.47,-0.4 238.53,29.8 106.48,39.2 136.7,152.6 300.2,152.6 h 20.18 c 30.22,0 61.55,-26.1 104.1,-28.2 5.71,-1.2 12.29,2 19.03,2 24.75,0 52.67,3.3 80.74,6.8 31.21,3.2 63.73,7.8 96.21,7.8 55.99,0 110.95,-11.3 155.77,-54.8 z m 1641.78,-5375.7199 c -15.74,0 -33.63,3.33 -57.1,12.33 12.17,71.7 34.66,95.17 55.87,95.17 22.45,0 42.63,-26.88 48.22,-53.69 4.44,-26.89 -6.74,-53.81 -46.99,-53.81 z m -163.5,-97.36 c -69.44,0 -166.91,89.5 -132.25,162.35 78.32,-5.59 145.61,-20.18 197.13,-52.66 6.74,-80.62 -24.63,-109.69 -64.88,-109.69 z m -5238.04,199.75 c 379.19,-2237.66 2092.75,-4021.41 4293.56,-4504.14 -7.42,16.98 -14.95,33.63 -26.57,45.37 -16.77,0 -32.48,-1.27 -48.1,-1.27 -60.44,0 -109.81,10.03 -117.66,62.7 96.32,60.43 269.98,30.17 280.01,145.45 6.7,79.59 -62.7,124.12 -119.84,181.23 -32.48,32.52 -60.55,69.04 -67.14,118.29 -32.52,19.04 -84.03,18.16 -114.24,40.53 39.21,85.14 82.87,114.76 129.87,114.76 133.28,0 292.3,-239.44 419.99,-255.38 1.03,0 2.18,0 2.18,0 32.48,0 56.11,20.19 78.44,37.08 22.37,16.73 43.66,36.96 71.62,36.96 18,0 39.22,-6.62 64.99,-24.63 17.89,-34.66 7.86,-76.18 0,-114.25 107.51,-85.06 286.71,-99.65 382.96,-197.12 -26.81,-66.03 -91.76,-80.62 -172.38,-80.62 -60.56,0 -129.88,7.89 -200.54,9 -92.96,1.03 -119.72,97.39 -185.87,113.1 -29.07,6.74 -59.4,11.18 -89.62,11.18 -129.83,0 -262.01,-64.88 -251.97,-176.94 30.21,-61.59 173.65,-11.19 175.83,-103.07 -0.36,-1.47 -0.71,-2.97 -1.15,-4.32 320.62,-57.38 650.91,-87.36 988.06,-87.36 1894.6,0 3568.3,945.86 4574.8,2391.11 2.7,6.87 5.6,13.57 8.8,19.95 -7.8,-2.26 -14.6,-2.26 -21.3,-2.26 -31.4,0 -44.8,19.04 -51.5,42.63 -17.9,218.35 85,315.82 217.3,383 34.6,193.79 258.7,294.48 300,487.17 27,121.98 -32.3,237.37 10.1,382.99 22.5,12.3 34.8,35.77 62.8,41.36 6.7,1.27 12.3,1.27 19.1,1.27 13.4,0 25.7,-2.3 37.9,-4.56 10.2,-1.15 20.2,-3.41 29.2,-3.41 9,0 17.9,2.26 26.9,6.7 50.2,134.79 73.2,295.99 169,384.94 122.5,459.33 187.9,942.09 187.9,1440.09 0,519 -71,1021.5 -203.8,1498.2 -39.4,37.2 -72.6,76.7 -121.7,93.7 -34.8,237.4 -136.7,408.7 -238.6,580.1 56.9,123.4 -18.3,217.1 -37.4,348.3 -57.5,113.3 -118.9,224.5 -183.8,333.2 -28.2,21.1 -53.1,42.5 -68.9,64.4 -24.7,35.8 -30.3,80.7 -51.4,113.2 -58.3,91.8 -160.2,128.8 -196,207.2 -100.8,12.3 -155.8,72.9 -197.2,144.7 131.8,98.7 -71.7,164.6 -55.1,257.5 -1021.6,1182.1999 -2532,1930.4999 -4217.1,1930.4999 -1979.89,0 -3718.47,-1032.8 -4706.42,-2588.9999 -18.24,-67.3 -13.8,-128.6 33.87,-178.4 96.32,48.2 196.1,114.3 278.86,196 35.93,35.8 52.7,91.8 94.18,124.3 35.81,30.2 96.25,41.4 134.31,72.9 49.26,41.3 66.15,105.2 113.1,154.4 88.47,91.8 213.91,169.1 348.34,169.1 11.14,0 23.47,-1 34.74,-2.1 0,-88.5 -83.99,-96.5 -133.29,-135.7 -62.81,-47.1 -100.76,-110.9 -187.09,-144.6 -33.51,-12.3 -95.18,-7.9 -135.43,-30.3 -90.77,-53.8 -54.84,-188.4 -71.73,-290.4 -26.89,-163.5 -164.61,-272.8 -290.04,-343.4 -70.59,-119.8 16.77,-229.9 61.58,-321.7 -25.78,-71.7 -95.21,-158.9 -41.4,-251.5 h 5.59 c 63.85,0 81.73,53.3 139.99,54.4 20.18,0 39.14,-7.4 58.29,-17.4 18.92,-10.2 37.95,-20.3 56.98,-20.3 13.45,0 26.93,5.5 40.37,20.1 7.86,64.9 -97.35,67.8 -114.24,134 -17.89,68.4 4.44,148.3 82.88,165.2 29.1,-14.7 15.74,-74.1 60.55,-74.1 1.03,0 1.03,0 1.03,0 51.52,22.3 80.62,71.9 114.25,115.6 16.85,165.7 17.89,347.4 92.91,447.1 41.48,52.8 100.81,67.6 145.62,103.4 49.33,39.2 99.73,129.1 165.76,145 h 6.74 c 20.15,0 40.33,-8.4 60.4,-17.4 19.15,-7.7 39.22,-17.5 59.4,-17.5 5.59,0 12.33,1.1 17.93,2.1 73.88,88.5 117.65,173.6 185.94,259.8 44.69,55 99.66,88.1 145.62,134.1 51.51,51.5 81.73,135.9 154.46,154.9 40.37,9 82.92,7.8 125.43,7.8 h 30.33 c 63.73,0 126.55,7 176.83,54.1 -7.77,37.9 -15.63,75.9999 -10.03,125.3999 26.92,46.9 107.5,98.5 174.68,98.5 42.63,0 79.55,-21.3 94.06,-78.5 -2.18,-50.4 -48.14,-54.8 -41.4,-113.0999 15.63,1.3 30.22,1.3 45.96,1.3 54.85,0 108.66,-6.9 161.2,-12.5 52.67,-6.5 105.25,-12.3 159.06,-12.3 22.33,0 44.81,0 68.29,3.5 134.43,-182.7 355.04,-281.2 610.34,-342.7 -2.18,-50.5 -2.18,-99.7 21.3,-124.3 147.87,-13.5 253.12,-70.6 330.41,-155.8 -21.3,-53.7 -36.92,-148.9 31.36,-164.6 77.29,105.2 154.62,263.2 104.1,434.6 26.89,54.8 79.47,85 82.88,165.8 113.1,195.8 549.91,70.4 673.16,257.4999 -26.93,139.9 -192.69,139.9 -238.65,259.7 70.59,53.9 192.68,56.2 207.16,165.8 -22.33,60.5 -128.84,37 -135.42,114.3 12.29,4.4 23.59,5.5 35.76,5.5 18.05,0 37.08,-3.2 54.85,-6.7 19.15,-3.4 39.22,-6.7 59.4,-6.7 14.59,0 30.34,2.3 47.11,7.9 2.14,-50.4 -44.81,-52.7 -30.21,-114.3 81.73,-19 143.31,-55.9 227.34,-72.8 52.55,23.6 76.06,76.3 153.35,76.3 10.2,0 21.2,-1.3 33.6,-3.5 34.7,-32.5 23.5,-114.2 61.6,-144.4 15.7,-4.5 31.3,-6.7 44.8,-6.7 80.6,0 137.7,62.8 203.9,88.6 11.1,73.9 -70.6,54.8 -52.7,135.5 51.5,69.4 211.7,29.4 290,71.9 60.5,-90.8 124.3,-179 228.5,-227.1 -79.6,-82.9 -26.9,-246.9 -135.6,-310.7 -70.5,37 -153.3,61.9 -257.5,64.2 -39.2,20.1 -33.6,85.7 -90.7,85.7 h -3.4 c -29.2,-124.6 33.7,-236.9999 52.7,-344.4999 226.2,-82.8 505.1,-119.1 548.8,-385.7 32.5,-27.9 110.8,-13.4 123.1,-62.7 9,-56 -25.8,-70.4 -20.2,-124.3 25.9,-62.7 115.4,-62.7 92.9,-174.8 55,-27.9 93.1,-73.8 155.8,-94 38.1,56 68.3,117.6 81.7,197.1 47.1,11.2 92.9,24.6 125.5,51.6 -14.5,48.1 -25.8,98.6 -21.2,165.7 30.2,22.4 60.4,32.5 88.4,32.5 89.6,0 163.5,-96.3 180.3,-178.1 51.5,3.3 105.2,8.9 153.4,8.9 107.6,0 184.9,-27.9 137.8,-173.5 31.3,-66.2 96.3,-56 154.4,-104.2 54.9,-44.7 88.6,-147.8 155.8,-165.7 10,-2.3 20.1,-3.4 30.2,-3.4 20.2,0 40.3,3.4 60.5,6.7 22.4,4.6 44.7,7.9 67.1,7.9 5.7,0 12.4,0 18,-1.1 30.2,-3.4 66,-34.7 103,-40.3 12.3,-2.3 24.7,-3.4 37,-3.4 14.5,0 29.1,1.1 42.5,3.4 15.7,1 29.2,3.3 41.4,3.3 9,0 16.8,-1.1 24.8,-3.3 52.5,-22.5 60.4,-87.5 102.9,-135.6 163.5,-36.9 348.4,-92.9 517.4,-155.6 53.8,-19 94.1,-68.3 145.6,-81.7 5.6,-2.3 11.2,-2.3 17.9,-2.3 9,0 17.9,1.1 27,2.3 10,1.1 20.1,2.1 29,2.1 6.8,0 13.5,-1 19.1,-2.1 50.4,-18 69.4,-62.9 124.2,-62.9 40.4,1.2 76.3,39.3 114.4,52.7 64.9,21.3 131,24.6 185.8,60.6 57.2,-11.3 50.4,-86.4 114.3,-91.9 43.6,202.7 -80.6,325.8 -155.8,444.6 52.7,66 20.3,161.2 10.2,248.6 25.7,40.3 68.3,63.9 124.2,72.8 16.8,-29.2 6.8,-82.9 31.4,-104.2 67.3,-23.5 177,-29.1 197.1,-114.2 12.4,-53.7 -35.8,-118.7 -41.4,-174.7 -10.1,-103.1 7.8,-207.2 48.2,-288.9 43.6,-85.1 111.9,-145.6 200.4,-156.8 5.7,-38.1 28,-61.5 20.2,-114.2 -50.4,-22.4 -109.8,-33.7 -165.8,-51.6 4.6,-82.8 -52.6,-105.2 -81.7,-154.5 33.6,-69.5 72.8,-133.2 154.6,-155.7 40.2,21.3 46.9,77.3 82.8,103.1 93,-33.6 276.6,-56 196,-197.1 -12.3,-6.8 -24.7,-9 -36.9,-9 -14.7,0 -28,3.4 -42.6,7.8 -13.5,3.4 -26.9,7.9 -40.4,7.9 -7.8,0 -16.8,-1.2 -24.5,-6.7 -57.1,-15.7 -28.1,-115.4 -83,-133.3 -82.8,-30.2 -145.5,3.4 -206,-41.4 -89.7,-67.2 -80.6,-325.9 -31.4,-404.3 59.4,-97.5 169.1,-65 206.2,-155.8 -33.7,-89.6 -112.1,-264.1 -20.2,-351.6 60.4,52.7 70.4,156.8 114.2,228.5 51.5,-7.9 96.2,-21.2 134.5,-41.5 17.8,-89.5 51.3,-163.4 112.9,-208.3 88.5,87.3 18,212.9 21.3,310.2 52.7,-5.6 91.9,-24.6 134.5,-40.2 53.8,-113.2 98.5,-297.9 52.5,-424.5 -42.5,24.6 -100.8,44.8 -153.3,44.8 -49.4,0 -94.1,-17.9 -116.6,-66.1 0,-61.6 58.3,-67.2 61.6,-124.3 -30.2,-52.6 -35.8,-128.8 -102.9,-145.6 -26.9,211.7 -194.9,282.3 -270,445.7 -60.5,-76.1 19,-139.9 31.5,-206 -28.1,-66.2 -76.2,-109.7 -164.7,-114.1 14.5,-191.6 -20.2,-438 -194.8,-438 -22.5,0 -47.1,3.4 -75.2,12.3 0,136.6 -206,193.7 -227.2,311.3 -12.5,67.2 42.5,143.4 72.7,217.3 10.2,-1.2 20.2,-2.3 29.1,-2.3 146.8,0 218.3,164.8 125.4,271 -58.2,-5.5 -108.5,-10 -154.5,-10 -68.3,0 -128.8,10 -197.1,41.5 -47,-14.6 -43.7,-79.6 -83.9,-103.1 -40.4,23.5 -81.9,44.8 -144.6,44.8 -12.2,0 -25.7,-1.1 -40.2,-3.4 -42.7,68.3 -107.7,113.1 -94.2,238.5 -20.1,12.4 -38,16.9 -54.8,16.9 -42.6,0 -79.5,-30.2 -131.1,-38.1 -43.6,30.2 -1.1,109.7 -20.1,144.5 -57.1,54.8 -202.6,17.9 -259.7,72.7 40.2,92.9 57.1,261 -77.4,261 -9,0 -16.8,0 -25.7,-2.3 -33.7,47.1 -63.9,95.2 -93,145.7 -1.1,34.7 53.7,44.7 20.1,82.8 -7.7,1.2 -14.5,1.2 -21.2,1.2 -38.1,0 -74,-14.6 -112.1,-29.1 -39.1,-13.5 -79.4,-28.1 -128.7,-28.1 -12.3,0 -25.7,1.2 -38.1,3.5 -29,49.2 -82.9,68.1 -146.7,68.1 -35.8,0 -73.9,-5.4 -113.1,-15.6 23.5,-170.2 -51.5,-312.4 -30.2,-445.8 5.6,-34.7 41.3,-73.9 51.5,-114.1 38.1,-143.3 91.8,-224 114.1,-351.7 10.2,-53.8 -15.6,-105.3 31.5,-154.5 25.8,23.4 45.9,32.4 63.9,32.4 38,0 67.1,-38 121.9,-42.5 6.8,-1.2 12.5,-1.2 18,-1.2 47,0 98.6,15.7 153.4,32.5 56,18 114.2,34.7 175.8,34.7 19.1,0 37,-1 56,-5.5 37.1,-49.3 75,-79.5 142.3,-79.5 20.2,0 41.4,2.3 66,7.8 56,-39.3 62.7,-146.7 31.4,-217.3 90.7,-171.3 132.2,-393 330.4,-455.8 27.9,-110.8 127.7,-304.52 -41.4,-331.45 -69.5,34.66 -29.2,128.75 -10.1,187.05 -46,22.3 -87.4,34.7 -128.9,34.7 -32.5,0 -64.9,-7.8 -98.5,-24.6 -49.2,-24.7 -56,-93.1 -104.2,-104.2 -6.6,-1.1 -12.2,-2.3 -17.8,-2.3 -19.2,0 -34.8,7.9 -50.5,15.7 -16.8,7.9 -33.5,15.7 -53.7,15.7 -10.1,0 -21.3,-2.2 -33.5,-7.8 53.7,-86.29 33.5,-187.1 -51.5,-187.1 -115.4,0 -79.6,130 -31.5,207.2 -21.2,26.9 -42.5,33.6 -68.3,33.6 -26.8,0 -57.2,-7.9 -96.3,-12.3 -30.3,63.8 -110.9,111.9 -155.7,175.8 -27.9,39.2 -75,135.6 -72.7,175.8 2.2,35.9 50.3,49.4 61.5,104.2 7.8,28.1 -6.7,64.9 0,81.8 20.2,47.1 94.1,69.4 94.1,124.3 -110.8,21.3 -145.6,117.5 -268.8,125.4 -48.2,-37 -48.2,-118.7 -94,-155.7 -54.9,62.7 -152.3,156.8 -258.7,156.8 -6.7,0 -13.4,-1.1 -20.2,-1.1 -52.6,-6.8 -68.4,-63.9 -125.4,-63.9 -3.4,0 -6.7,1.1 -10.2,1.1 -41.3,16.9 -36.9,79.4 -51.5,124.3 -56,63.8 -127.5,65.9 -133.1,144.2 -10.2,104.2 91.7,99.5 91.7,176.8 0,53.7 -110.8,162.9 -154.4,174.1 -13.5,3.3 -25.9,4.5 -39.4,4.5 -78.3,0 -158.9,-46.6 -210.5,-59.4 h -4.4 c -29.1,0 -52.7,10.1 -76.2,17.9 -24.6,9 -47.1,19.1 -72.8,19.1 -3.3,0 -7.8,0 -11.2,-1.1 -50.4,-6.8 -104.1,-72.8 -155.6,-72.8 -3.4,0 -6.8,0 -10.2,1 -52.5,9 -26.8,44.8 -72.7,103.1 -43.7,57.1 -113.1,96.3 -124.3,165.8 -32.5,8.9 -53.8,13.4 -80.7,13.4 -12.3,0 -26.8,-1.1 -43.7,-3.4 -26.8,-26.9 -16.8,-92.9 -51.4,-114.2 -74,19 -72.9,114.2 -93.1,187.1 -72.7,71.5 -116.3,172.3 -155.6,278.8 -97.4,24.6 -194.8,25.9 -186.9,125.4 6.5,66.1 64.8,49.3 93.9,113.2 -21.2,68.2 -61.5,118.6 -104.1,165.7 -96.4,-71.7 11.2,-280 -91.8,-372.9 -5.6,-1.2 -11.3,-1.2 -15.7,-1.2 -5.6,0 -11.2,1.1 -15.6,1.1 h -18.1 c -18.9,0 -35.7,-2.2 -44.7,-10.1 -115.31,-117.6 64.9,-170.2 52.6,-268.7 -8.9,-68.3 -109.66,-70.6 -155.62,-104.2 -77.29,-56 -122.1,-208.2 -217.31,-238.5 -66.03,24.6 -163.39,44.6 -244.08,44.6 -16.78,0 -32.52,-1.2 -45.96,-3.4 -123.14,-203.8 50.4,-452.8 134.43,-610.7 -154.5,-131 157.91,-269.1 -11.18,-414.7 -21.34,8.8 -41.52,11.2 -60.56,11.2 -39.22,0 -75.03,-15.4 -109.69,-28.9 -34.77,-13.4 -68.4,-30.9 -101.91,-30.9 h -6.74 c -49.26,16 -90.62,47.9 -143.44,47.9 0,0 -0.99,0 -2.14,0 -62.69,0 -84.03,-29.4 -154.62,-40.7 -36.92,18.1 -90.61,31.1 -143.31,31.1 -49.26,0 -97.36,-11.1 -126.54,-40.3 -2.3,-38.1 2.26,-67.3 10.15,-94.1 12.29,-6.7 26.89,-9 41.36,-9 13.44,0 28.07,2.3 42.55,4.6 15.7,2.1 30.3,4.4 43.66,4.4 20.3,0 37.04,-4.4 49.25,-20.1 13.45,-157.9 -122.02,-168.1 -247.41,-186 -42.51,-68.39 -114.25,-107.69 -145.61,-187.16 76.17,-80.58 176.98,-138.99 258.71,-217.47 26.92,20.31 52.54,27.88 78.32,27.88 69.44,0 132.25,-63.33 191.66,-121.58 88.39,-87.37 168.97,-160.69 164.53,-301.23 1.15,0 1.15,0 1.15,0 79.59,0 68.28,90.73 144.46,94.06 63.85,-63.84 148.91,-108.57 174.65,-174.72 19.15,-46.95 42.67,-163.46 31.48,-237.38 -12.33,-97.47 -113.21,-169.17 -93.03,-269.97 13.44,-63.85 98.62,-100.69 165.76,-175.8 25.78,-29.07 34.78,-67.18 51.55,-82.88 70.43,-60.43 165.65,-57.14 185.95,-124.28 11.18,-32.52 -11.3,-85.06 -10.15,-114.25 6.62,-88.47 63.84,-180.39 10.15,-268.86 -107.63,-43.54 -188.25,-115.24 -257.68,-197.01 34.66,-100.77 24.62,-194.83 -62.7,-217.32 -8.88,-2.14 -17.88,-3.29 -28.03,-3.29 -24.63,0 -52.59,5.63 -81.78,11.23 -29.06,5.59 -59.28,11.22 -87.32,11.22 -17.88,0 -35.81,-2.1 -51.55,-7.7 -45.8,-19.03 -31.33,-53.61 -82.88,-72.64 -6.62,1.11 -12.17,1.46 -17.77,1.46 -68.4,0 -103.1,-52.86 -168.06,-52.86 h -14.59 c -41.4,0 -79.47,12.69 -116.43,27.17 -39.22,14.59 -78.44,28.51 -118.69,28.51 -13.44,0 -26.89,-1.19 -40.37,-4.6 -1.11,-107.55 104.22,-109.77 92.95,-228.22 111.95,-21.45 165.77,-103.11 145.58,-258.63 -51.43,-30.22 -68.29,-91.13 -135.46,-103.94 h -9 c -16.74,0 -33.63,5.31 -49.26,10.9 -15.7,6.75 -31.33,13.29 -43.66,13.29 -13.44,0 -23.48,-5.59 -32.48,-24.63 -21.33,-76.18 165.76,-33.55 165.76,-123.17 -15.74,-8.88 -30.21,-10.94 -43.66,-10.94 -18,0 -34.78,4.95 -51.55,10.66 -19.03,5.6 -38.07,12.14 -59.36,12.14 h -11.19 c -55.99,-9.6 -94.06,-58.06 -144.46,-62.54 -10.15,-1.11 -19.04,-3.21 -29.07,-3.21 -138.87,0 -229.65,117.66 -302.49,218.46 117.65,4.44 99.65,209.3 4.56,209.3 -4.56,0 -10.16,0 -14.6,-0.99 -96.32,-20.3 -24.62,-149.02 -31.36,-208.31 -4.56,-34.78 -44.78,-68.28 -41.48,-101.95 4.56,-50.36 73.99,-71.7 62.69,-135.55 -64.87,-49.25 -199.27,-28.03 -269.85,-72.72 -31.37,31.21 -73.88,40.21 -119.85,40.21 -22.32,0 -45.84,-2.15 -69.31,-4.44 -4.56,0 -7.85,-1.11 -12.41,-1.11 -26.81,-3.45 -53.82,-6.75 -78.37,-6.75 -25.73,0 -50.36,3.3 -71.69,13.45 -70.59,32.51 -41.52,106.39 -113.1,135.58 -20.18,-2.3 -39.22,-3.45 -57.14,-3.45 -179.21,0 -265.42,92.95 -305.79,230.68 -68.29,76.26 -193.68,96.32 -228.34,207.28 8.89,161.2 -14.63,324.7 72.73,465.83 -26.81,38.11 -82.88,70.47 -143.31,70.47 -17.93,0 -35.93,-2.3 -52.67,-9 -39.22,-53.73 51.52,-53.85 30.18,-124.44 -19.03,-14.59 -25.62,-42.91 -51.51,-51.83 -38.07,0 -53.7,22.84 -91.8,22.84 -6.71,0 -14.6,-2.38 -22.33,-3.41 -40.37,-59.4 14.47,-172.94 -51.55,-220.84 h -10.15 c -72.73,0 -92.92,-49.06 -135.43,-80.26 -54.84,0 -88.47,24.7 -133.28,33.58 -52.66,120.99 -106.4,239.68 -208.31,310.23 -2.3,1.15 -4.44,1.15 -6.74,1.15 -31.33,0 -44.81,-20.19 -75.03,-21.33 -350.6,122.13 -544.28,403.17 -797.4,621.6 -19.03,170.24 -190.31,157.95 -249.71,278.9 -92.91,198.16 -73.88,385.25 -195.98,581.11 -36.92,59.41 -114.25,93.07 -145.58,154.62 -29.1,58.25 -30.21,128.84 -71.73,187.09 -36.92,49.14 -92.92,76.06 -124.28,123.14 -54.13,81.17 -68.96,183.56 -115.48,265.89"
           inkscape:connector-curvature="0" /></g><g
         transform="scale(3.06748)"
         id="g1566"><g
           id="g1195" /></g><g
         transform="scale(3.06748)"
         id="g1570"><g
           id="g1192" /></g><g
         transform="scale(1.38558)"
         id="g1574" /><g
         transform="scale(3.06748)"
         id="g1598" /><g
         transform="scale(1.32011)"
         id="g2054" /><g
         transform="scale(1.2469)"
         id="g2058" /><g
         transform="scale(1.1651)"
         id="g2282" /><g
         transform="scale(1.05652)"
         id="g2286" /><g
         transform="scale(3.06748)"
         id="g2374" /></g></g></svg>